<svg width="176" height="53" viewBox="0 0 176 53" fill="none" xmlns="http://www.w3.org/2000/svg">
<path d="M55.6006 0C55.6006 8.82831 55.6006 17.6566 55.6006 26.7525C56.0205 26.6685 56.2754 26.5699 56.6482 26.3757C56.7032 26.3472 56.7583 26.3187 56.815 26.2894C56.9932 26.1968 57.1709 26.1034 57.3486 26.01C57.4714 25.946 57.5941 25.882 57.7168 25.818C58.4633 25.428 59.2052 25.0303 59.9379 24.6148C60.3579 24.3766 60.7795 24.163 61.213 23.9463C61.213 17.8035 61.213 11.6607 61.213 5.33178C62.7973 5.31936 64.3816 5.30694 66.0139 5.29415C67.034 5.28607 68.0541 5.27798 69.0742 5.26985C69.6124 5.26556 70.1505 5.26127 70.6886 5.25699C70.7897 5.25619 70.7897 5.25619 70.8928 5.25537C71.8305 5.24791 72.7681 5.24053 73.7057 5.23322C75.3238 5.22062 76.9419 5.20784 78.56 5.19476C78.623 5.19425 78.6861 5.19374 78.7511 5.19322C83.0076 5.15881 87.2638 5.11376 91.52 5.05116C91.52 3.38428 91.52 1.7174 91.52 0C79.6666 0 67.8132 0 55.6006 0ZM10.2114 5.60035C9.99466 5.76742 9.77539 5.92557 9.54968 6.0801C9.42524 6.17271 9.42524 6.17271 9.29829 6.26718C9.29829 6.32892 9.29829 6.39066 9.29829 6.45426C9.21997 6.48809 9.21997 6.48809 9.14007 6.52259C8.87839 6.66649 8.68234 6.84298 8.46227 7.04474C8.38426 7.11576 8.30624 7.18678 8.22587 7.25995C6.47097 8.91209 5.02291 10.83 3.80162 12.9C3.69834 13.0746 3.59341 13.248 3.48784 13.4212C0.0304003 19.2322 -0.828386 26.5968 0.786144 33.1132C0.807788 33.2021 0.829432 33.2911 0.851732 33.3827C1.40561 35.6024 2.34782 37.7783 3.49881 39.7545C3.53855 39.8229 3.5783 39.8912 3.61925 39.9617C4.41384 41.3161 5.29363 42.5744 6.30501 43.7767C6.3794 43.8685 6.4538 43.9603 6.53045 44.0548C7.54362 45.2955 8.6809 46.4501 9.95307 47.4248C10.0667 47.5161 10.1802 47.6076 10.2936 47.6992C11.9079 48.9873 13.6567 50.0087 15.5655 50.7923C15.6337 50.8212 15.7019 50.8502 15.7722 50.8801C22.1803 53.6026 29.5155 53.4599 35.9572 50.9793C37.3594 50.4056 38.6993 49.731 39.9794 48.9214C40.0661 48.8673 40.1528 48.8132 40.2421 48.7574C40.4025 48.6561 40.5625 48.554 40.7219 48.4512C41.1083 48.2023 41.4967 47.9568 41.8853 47.7113C41.963 47.6621 42.0407 47.613 42.1208 47.5624C42.5412 47.297 42.9631 47.0345 43.3878 46.7759C43.9922 46.4059 44.5856 46.0194 45.1787 45.6317C45.9058 45.1565 46.6386 44.6908 47.3731 44.2273C48.5706 43.4707 49.7524 42.6926 50.9285 41.9034C51.2007 41.7212 51.4734 41.5401 51.7465 41.3593C52.5766 40.8094 53.3992 40.2565 54.1975 39.661C54.3844 39.5243 54.5715 39.3879 54.7588 39.2517C54.8417 39.1912 54.9247 39.1307 55.0101 39.0683C55.1735 38.9508 55.3396 38.8372 55.5071 38.7256C55.574 39.4429 55.6165 40.1552 55.6269 40.8755C55.6295 41.0195 55.6295 41.0195 55.632 41.1665C55.6375 41.4809 55.6424 41.7954 55.6474 42.1098C55.6512 42.3322 55.655 42.5546 55.6589 42.7769C55.669 43.3617 55.6787 43.9465 55.6883 44.5313C55.7036 45.4609 55.7192 46.3905 55.7353 47.3201C55.7407 47.6399 55.7459 47.9597 55.751 48.2795C55.7774 49.8355 55.8294 51.3877 55.8812 52.9437C57.7951 52.9437 59.7089 52.9437 61.6807 52.9437C61.6889 50.0648 61.6781 47.188 61.6398 44.3095C61.6383 44.1939 61.6383 44.1939 61.6367 44.076C61.624 43.13 61.6108 42.1839 61.5974 41.2379C61.5858 40.4205 61.5746 39.6031 61.5635 38.7857C61.5406 37.1131 61.5173 35.4405 61.4936 33.768C61.8372 33.5885 62.1808 33.4091 62.5244 33.2297C62.621 33.1793 62.7176 33.1288 62.8171 33.0769C64.8479 32.0168 66.9075 30.9677 69.0587 30.1725C69.3616 30.0603 69.6586 29.9371 69.9561 29.8111C70.6667 29.5135 71.3866 29.2435 72.1104 28.9799C72.1824 28.9536 72.2544 28.9274 72.3285 28.9004C73.8402 28.3526 75.3752 27.912 76.93 27.5051C77.1748 27.441 77.4191 27.3755 77.663 27.3083C78.4593 27.0905 79.2565 26.9078 80.0672 26.7525C80.1286 26.7406 80.1901 26.7288 80.2534 26.7167C83.773 26.0441 87.2892 25.768 90.8652 26.0041C90.5526 25.7957 90.333 25.7496 89.966 25.6753C89.9034 25.6625 89.8409 25.6498 89.7765 25.6366C89.5686 25.5946 89.3604 25.5537 89.1523 25.5131C89.0801 25.4988 89.0079 25.4846 88.9335 25.4699C81.8632 24.0822 74.2638 23.6978 67.2931 25.9106C67.1885 25.9435 67.0839 25.9765 66.9762 26.0104C65.6216 26.4406 64.2813 26.8836 62.9984 27.501C62.793 27.5992 62.5862 27.694 62.379 27.7883C59.7104 29.0131 57.22 30.5512 54.8139 32.2256C54.4016 32.5122 53.9866 32.7949 53.572 33.0781C53.0418 33.4403 52.5129 33.8039 51.9876 34.1732C51.2411 34.6974 50.4894 35.2128 49.7291 35.717C49.3119 35.9964 48.8989 36.2819 48.4856 36.5671C48.0243 36.8849 47.5599 37.1971 47.0921 37.5052C46.8486 37.6692 46.608 37.8365 46.3679 38.0054C45.8843 38.3448 45.3943 38.6737 44.902 39.0004C44.8156 39.0578 44.7292 39.1152 44.6402 39.1744C44.4707 39.2872 44.3012 39.3998 44.1316 39.5125C43.864 39.6903 43.5966 39.8685 43.3293 40.0468C43.2009 40.1324 43.2009 40.1324 43.0699 40.2197C42.853 40.3644 42.6362 40.5094 42.4195 40.6545C41.3553 41.3666 40.2857 42.0703 39.2109 42.7662C39.0438 42.8744 38.8769 42.9828 38.7102 43.0915C33.7711 46.3065 28.165 47.6381 22.3345 46.4245C17.7274 45.4077 13.198 42.5443 10.5143 38.632C10.45 38.5406 10.3858 38.4492 10.3196 38.3551C8.69455 35.9875 7.5795 33.3398 7.14687 30.4941C7.13604 30.4239 7.12522 30.3538 7.11407 30.2816C6.40432 25.4418 7.54163 20.1746 10.2337 16.0889C10.3098 15.9711 10.386 15.8534 10.4621 15.7356C11.2203 14.5709 12.0848 13.5412 13.0399 12.5344C13.1399 12.4284 13.1399 12.4284 13.242 12.3202C13.7308 11.8163 14.2643 11.376 14.8172 10.9442C14.8676 10.9043 14.9181 10.8643 14.9702 10.8232C17.4679 8.86128 20.5364 7.66666 23.7035 7.38966C23.7848 7.38181 23.8661 7.37396 23.9498 7.36587C26.964 7.09884 29.976 7.21964 32.8704 8.13799C32.9465 8.16209 33.0227 8.18619 33.1012 8.21102C34.8047 8.76404 36.3941 9.59149 37.828 10.6636C37.9635 10.7609 37.9635 10.7609 38.1017 10.8601C39.1434 11.6191 40.2139 12.4466 41.0084 13.4698C41.3936 13.4228 41.541 13.2316 41.7859 12.9436C42.0377 12.6535 42.2885 12.3699 42.5635 12.1017C42.9829 11.6891 43.3679 11.2477 43.7327 10.7863C43.9909 10.4679 44.2851 10.19 44.5797 9.90538C44.6532 9.8334 44.7268 9.76141 44.8026 9.68724C44.9069 9.58614 44.9069 9.58614 45.0134 9.48299C45.2381 9.23817 45.414 8.97945 45.5918 8.69922C45.523 8.63146 45.4541 8.56369 45.3832 8.49388C44.551 7.6707 44.551 7.6707 44.3115 7.36628C44.0762 7.08643 43.8204 6.86283 43.5424 6.62673C43.3495 6.45659 43.1736 6.27777 42.9961 6.0918C41.4093 4.48964 39.2383 3.37019 37.2112 2.44214C37.0573 2.37126 36.904 2.29906 36.7512 2.22573C36.0454 1.89226 35.3205 1.64023 34.5775 1.4031C34.5142 1.38278 34.4509 1.36246 34.3858 1.34153C32.6036 0.771996 30.8003 0.403166 28.9417 0.18708C28.833 0.173651 28.833 0.173651 28.7221 0.15995C21.9049 -0.580636 15.557 1.42179 10.2114 5.60035Z" fill="white"/>
<path d="M107.286 24.5906C106.79 24.5906 106.332 24.509 105.912 24.3458C105.491 24.1763 105.127 23.9409 104.819 23.6396C104.512 23.3383 104.27 22.9836 104.094 22.5756C103.925 22.1675 103.84 21.7218 103.84 21.2385C103.84 20.7551 103.925 20.3094 104.094 19.9014C104.27 19.4934 104.512 19.1387 104.819 18.8374C105.133 18.536 105.5 18.3038 105.921 18.1406C106.342 17.9711 106.8 17.8863 107.296 17.8863C107.773 17.8863 108.222 17.9679 108.642 18.1312C109.063 18.2881 109.417 18.5266 109.706 18.8468L109.264 19.2893C108.994 19.0131 108.696 18.8154 108.369 18.6961C108.043 18.5706 107.691 18.5078 107.315 18.5078C106.919 18.5078 106.552 18.5769 106.213 18.715C105.874 18.8468 105.579 19.0382 105.328 19.2893C105.077 19.5342 104.879 19.8229 104.735 20.1556C104.596 20.482 104.527 20.843 104.527 21.2385C104.527 21.634 104.596 21.9981 104.735 22.3308C104.879 22.6572 105.077 22.9459 105.328 23.197C105.579 23.4418 105.874 23.6333 106.213 23.7714C106.552 23.9032 106.919 23.9691 107.315 23.9691C107.691 23.9691 108.043 23.9064 108.369 23.7808C108.696 23.6553 108.994 23.4544 109.264 23.1782L109.706 23.6208C109.417 23.9409 109.063 24.1826 108.642 24.3458C108.222 24.509 107.77 24.5906 107.286 24.5906Z" fill="white"/>
<path d="M112.284 21.1349H115.768V21.7375H112.284V21.1349ZM112.359 24.5341H111.662V17.9428H116.182V18.5455H112.359V24.5341Z" fill="white"/>
<path d="M122.844 24.5906C122.355 24.5906 121.884 24.5121 121.432 24.3552C120.986 24.192 120.641 23.9848 120.396 23.7337L120.669 23.197C120.901 23.423 121.212 23.6145 121.601 23.7714C121.997 23.9221 122.411 23.9974 122.844 23.9974C123.259 23.9974 123.595 23.9472 123.852 23.8467C124.116 23.74 124.307 23.5988 124.426 23.423C124.552 23.2472 124.615 23.0527 124.615 22.8392C124.615 22.5818 124.539 22.3747 124.389 22.2178C124.244 22.0608 124.053 21.9384 123.814 21.8505C123.576 21.7564 123.312 21.6748 123.023 21.6057C122.735 21.5367 122.446 21.4645 122.157 21.3891C121.868 21.3075 121.601 21.2008 121.357 21.069C121.118 20.9372 120.923 20.7645 120.773 20.5511C120.628 20.3314 120.556 20.0458 120.556 19.6942C120.556 19.3678 120.641 19.0696 120.81 18.7997C120.986 18.5235 121.253 18.3038 121.611 18.1406C121.969 17.9711 122.427 17.8863 122.986 17.8863C123.356 17.8863 123.723 17.9397 124.087 18.0464C124.451 18.1468 124.765 18.2881 125.029 18.4701L124.793 19.0257C124.511 18.8374 124.21 18.6993 123.89 18.6114C123.576 18.5235 123.271 18.4795 122.976 18.4795C122.581 18.4795 122.254 18.5329 121.997 18.6396C121.74 18.7463 121.548 18.8907 121.423 19.0728C121.303 19.2485 121.244 19.4494 121.244 19.6754C121.244 19.9328 121.316 20.1399 121.46 20.2969C121.611 20.4538 121.805 20.5762 122.044 20.6641C122.289 20.752 122.556 20.8304 122.844 20.8995C123.133 20.9685 123.419 21.0439 123.701 21.1255C123.99 21.2071 124.254 21.3138 124.492 21.4456C124.737 21.5712 124.932 21.7407 125.076 21.9541C125.227 22.1675 125.302 22.4469 125.302 22.7921C125.302 23.1123 125.214 23.4105 125.038 23.6867C124.863 23.9566 124.593 24.1763 124.229 24.3458C123.871 24.509 123.409 24.5906 122.844 24.5906Z" fill="white"/>
<path d="M130.172 24.5906C129.676 24.5906 129.215 24.509 128.788 24.3458C128.368 24.1763 128 23.9409 127.686 23.6396C127.379 23.332 127.137 22.9773 126.961 22.5756C126.792 22.1675 126.707 21.7218 126.707 21.2385C126.707 20.7551 126.792 20.3126 126.961 19.9108C127.137 19.5028 127.379 19.1481 127.686 18.8468C128 18.5392 128.368 18.3038 128.788 18.1406C129.209 17.9711 129.67 17.8863 130.172 17.8863C130.668 17.8863 131.126 17.9711 131.547 18.1406C131.968 18.3038 132.332 18.536 132.639 18.8374C132.953 19.1387 133.195 19.4934 133.364 19.9014C133.54 20.3094 133.628 20.7551 133.628 21.2385C133.628 21.7218 133.54 22.1675 133.364 22.5756C133.195 22.9836 132.953 23.3383 132.639 23.6396C132.332 23.9409 131.968 24.1763 131.547 24.3458C131.126 24.509 130.668 24.5906 130.172 24.5906ZM130.172 23.9691C130.568 23.9691 130.932 23.9032 131.265 23.7714C131.604 23.6333 131.895 23.4418 132.14 23.197C132.391 22.9459 132.586 22.6572 132.724 22.3308C132.862 21.9981 132.931 21.634 132.931 21.2385C132.931 20.843 132.862 20.482 132.724 20.1556C132.586 19.8229 132.391 19.5342 132.14 19.2893C131.895 19.0382 131.604 18.8468 131.265 18.715C130.932 18.5769 130.568 18.5078 130.172 18.5078C129.777 18.5078 129.41 18.5769 129.071 18.715C128.732 18.8468 128.437 19.0382 128.186 19.2893C127.941 19.5342 127.746 19.8229 127.602 20.1556C127.464 20.482 127.395 20.843 127.395 21.2385C127.395 21.6277 127.464 21.9886 127.602 22.3213C127.746 22.654 127.941 22.9459 128.186 23.197C128.437 23.4418 128.732 23.6333 129.071 23.7714C129.41 23.9032 129.777 23.9691 130.172 23.9691Z" fill="white"/>
<path d="M135.661 24.5341V17.9428H136.357V23.9315H140.049V24.5341H135.661Z" fill="white"/>
<path d="M144.212 24.5906C143.371 24.5906 142.709 24.3489 142.225 23.8656C141.742 23.3822 141.5 22.6666 141.5 21.7187V17.9428H142.197V21.6904C142.197 22.4688 142.373 23.0432 142.724 23.4136C143.076 23.784 143.572 23.9691 144.212 23.9691C144.859 23.9691 145.358 23.784 145.709 23.4136C146.061 23.0432 146.237 22.4688 146.237 21.6904V17.9428H146.915V21.7187C146.915 22.6666 146.673 23.3822 146.189 23.8656C145.712 24.3489 145.053 24.5906 144.212 24.5906Z" fill="white"/>
<path d="M152.348 24.5906C151.852 24.5906 151.393 24.509 150.973 24.3458C150.552 24.1763 150.188 23.9409 149.881 23.6396C149.573 23.3383 149.331 22.9836 149.155 22.5756C148.986 22.1675 148.901 21.7218 148.901 21.2385C148.901 20.7551 148.986 20.3094 149.155 19.9014C149.331 19.4934 149.573 19.1387 149.881 18.8374C150.194 18.536 150.562 18.3038 150.982 18.1406C151.403 17.9711 151.861 17.8863 152.357 17.8863C152.834 17.8863 153.283 17.9679 153.703 18.1312C154.124 18.2881 154.479 18.5266 154.767 18.8468L154.325 19.2893C154.055 19.0131 153.757 18.8154 153.43 18.6961C153.104 18.5706 152.752 18.5078 152.376 18.5078C151.98 18.5078 151.613 18.5769 151.274 18.715C150.935 18.8468 150.64 19.0382 150.389 19.2893C150.138 19.5342 149.94 19.8229 149.796 20.1556C149.658 20.482 149.589 20.843 149.589 21.2385C149.589 21.634 149.658 21.9981 149.796 22.3308C149.94 22.6572 150.138 22.9459 150.389 23.197C150.64 23.4418 150.935 23.6333 151.274 23.7714C151.613 23.9032 151.98 23.9691 152.376 23.9691C152.752 23.9691 153.104 23.9064 153.43 23.7808C153.757 23.6553 154.055 23.4544 154.325 23.1782L154.767 23.6208C154.479 23.9409 154.124 24.1826 153.703 24.3458C153.283 24.509 152.831 24.5906 152.348 24.5906ZM152.009 26.6057C151.852 26.6057 151.707 26.5868 151.575 26.5492C151.45 26.5115 151.331 26.4581 151.218 26.3891L151.378 26.0313C151.472 26.0878 151.569 26.1317 151.67 26.1631C151.776 26.1945 151.886 26.2102 151.999 26.2102C152.187 26.2102 152.332 26.1694 152.432 26.0878C152.533 26.0124 152.583 25.9057 152.583 25.7676C152.583 25.6421 152.533 25.5385 152.432 25.4569C152.338 25.3753 152.194 25.3345 151.999 25.3345H151.783L152.009 24.4776H152.413L152.272 25.0238C152.53 25.0426 152.727 25.1211 152.865 25.2592C153.004 25.4035 153.073 25.5793 153.073 25.7865C153.073 26.0375 152.972 26.2353 152.771 26.3797C152.577 26.5303 152.322 26.6057 152.009 26.6057Z" fill="white"/>
<path d="M159.467 24.5906C158.971 24.5906 158.51 24.509 158.083 24.3458C157.662 24.1763 157.295 23.9409 156.981 23.6396C156.674 23.332 156.432 22.9773 156.256 22.5756C156.087 22.1675 156.002 21.7218 156.002 21.2385C156.002 20.7551 156.087 20.3126 156.256 19.9108C156.432 19.5028 156.674 19.1481 156.981 18.8468C157.295 18.5392 157.662 18.3038 158.083 18.1406C158.503 17.9711 158.965 17.8863 159.467 17.8863C159.963 17.8863 160.421 17.9711 160.842 18.1406C161.262 18.3038 161.626 18.536 161.934 18.8374C162.248 19.1387 162.49 19.4934 162.659 19.9014C162.835 20.3094 162.923 20.7551 162.923 21.2385C162.923 21.7218 162.835 22.1675 162.659 22.5756C162.49 22.9836 162.248 23.3383 161.934 23.6396C161.626 23.9409 161.262 24.1763 160.842 24.3458C160.421 24.509 159.963 24.5906 159.467 24.5906ZM159.467 23.9691C159.863 23.9691 160.227 23.9032 160.559 23.7714C160.898 23.6333 161.19 23.4418 161.435 23.197C161.686 22.9459 161.881 22.6572 162.019 22.3308C162.157 21.9981 162.226 21.634 162.226 21.2385C162.226 20.843 162.157 20.482 162.019 20.1556C161.881 19.8229 161.686 19.5342 161.435 19.2893C161.19 19.0382 160.898 18.8468 160.559 18.715C160.227 18.5769 159.863 18.5078 159.467 18.5078C159.072 18.5078 158.704 18.5769 158.365 18.715C158.026 18.8468 157.731 19.0382 157.48 19.2893C157.235 19.5342 157.041 19.8229 156.896 20.1556C156.758 20.482 156.689 20.843 156.689 21.2385C156.689 21.6277 156.758 21.9886 156.896 22.3213C157.041 22.654 157.235 22.9459 157.48 23.197C157.731 23.4418 158.026 23.6333 158.365 23.7714C158.704 23.9032 159.072 23.9691 159.467 23.9691ZM160.107 17.3496C159.963 17.3496 159.834 17.3182 159.721 17.2555C159.608 17.1927 159.505 17.1205 159.411 17.0389C159.323 16.951 159.235 16.8757 159.147 16.8129C159.059 16.7439 158.968 16.7093 158.874 16.7093C158.729 16.7093 158.613 16.7627 158.525 16.8694C158.444 16.9761 158.397 17.1236 158.384 17.312H157.979C157.992 16.9981 158.073 16.747 158.224 16.5587C158.381 16.3703 158.582 16.2762 158.827 16.2762C158.971 16.2762 159.1 16.3107 159.213 16.3798C159.332 16.4425 159.436 16.5179 159.524 16.6058C159.618 16.6874 159.706 16.7595 159.787 16.8223C159.875 16.8851 159.966 16.9165 160.06 16.9165C160.205 16.9165 160.321 16.8663 160.409 16.7658C160.497 16.6591 160.544 16.5147 160.55 16.3327H160.955C160.949 16.634 160.867 16.8788 160.71 17.0671C160.553 17.2555 160.352 17.3496 160.107 17.3496Z" fill="white"/>
<path d="M165.577 20.8901H169.061V21.4833H165.577V20.8901ZM165.652 23.9315H169.616V24.5341H164.955V17.9428H169.475V18.5455H165.652V23.9315Z" fill="white"/>
<path d="M173.542 24.5906C173.053 24.5906 172.582 24.5121 172.13 24.3552C171.684 24.192 171.339 23.9848 171.094 23.7337L171.367 23.197C171.6 23.423 171.91 23.6145 172.299 23.7714C172.695 23.9221 173.109 23.9974 173.542 23.9974C173.957 23.9974 174.293 23.9472 174.55 23.8467C174.814 23.74 175.005 23.5988 175.124 23.423C175.25 23.2472 175.313 23.0527 175.313 22.8392C175.313 22.5818 175.237 22.3747 175.087 22.2178C174.942 22.0608 174.751 21.9384 174.512 21.8505C174.274 21.7564 174.01 21.6748 173.721 21.6057C173.433 21.5367 173.144 21.4645 172.855 21.3891C172.566 21.3075 172.299 21.2008 172.055 21.069C171.816 20.9372 171.621 20.7645 171.471 20.5511C171.326 20.3314 171.254 20.0458 171.254 19.6942C171.254 19.3678 171.339 19.0696 171.509 18.7997C171.684 18.5235 171.951 18.3038 172.309 18.1406C172.667 17.9711 173.125 17.8863 173.684 17.8863C174.054 17.8863 174.421 17.9397 174.785 18.0464C175.149 18.1468 175.463 18.2881 175.727 18.4701L175.492 19.0257C175.209 18.8374 174.908 18.6993 174.588 18.6114C174.274 18.5235 173.969 18.4795 173.674 18.4795C173.279 18.4795 172.952 18.5329 172.695 18.6396C172.438 18.7463 172.246 18.8907 172.121 19.0728C172.001 19.2485 171.942 19.4494 171.942 19.6754C171.942 19.9328 172.014 20.1399 172.158 20.2969C172.309 20.4538 172.503 20.5762 172.742 20.6641C172.987 20.752 173.254 20.8304 173.542 20.8995C173.831 20.9685 174.117 21.0439 174.399 21.1255C174.688 21.2071 174.952 21.3138 175.19 21.4456C175.435 21.5712 175.63 21.7407 175.774 21.9541C175.925 22.1675 176 22.4469 176 22.7921C176 23.1123 175.912 23.4105 175.736 23.6867C175.561 23.9566 175.291 24.1763 174.927 24.3458C174.569 24.509 174.107 24.5906 173.542 24.5906Z" fill="white"/>
<path d="M105.88 33.7079H109.364V34.3105H105.88V33.7079ZM105.955 37.1071H105.258V30.5158H109.778V31.1184H105.955V37.1071Z" fill="white"/>
<path d="M111.688 37.1071V30.5158H112.385V37.1071H111.688Z" fill="white"/>
<path d="M115 37.1071V30.5158H115.574L120.122 36.2408H119.821V30.5158H120.508V37.1071H119.934L115.396 31.3821H115.697V37.1071H115Z" fill="white"/>
<path d="M122.076 37.1071L125.089 30.5158H125.777L128.79 37.1071H128.055L125.287 30.9207H125.569L122.801 37.1071H122.076ZM123.262 35.3463L123.47 34.7813H127.302L127.509 35.3463H123.262Z" fill="white"/>
<path d="M130.351 37.1071V30.5158H130.925L135.473 36.2408H135.172V30.5158H135.859V37.1071H135.285L130.746 31.3821H131.048V37.1071H130.351Z" fill="white"/>
<path d="M141.344 37.1636C140.848 37.1636 140.39 37.082 139.969 36.9188C139.549 36.7493 139.185 36.5139 138.877 36.2126C138.569 35.9113 138.328 35.5566 138.152 35.1485C137.982 34.7405 137.898 34.2948 137.898 33.8115C137.898 33.3281 137.982 32.8824 138.152 32.4744C138.328 32.0663 138.569 31.7117 138.877 31.4103C139.191 31.109 139.558 30.8768 139.979 30.7136C140.399 30.5441 140.857 30.4593 141.353 30.4593C141.83 30.4593 142.279 30.5409 142.7 30.7041C143.12 30.8611 143.475 31.0996 143.764 31.4198L143.321 31.8623C143.051 31.5861 142.753 31.3884 142.427 31.2691C142.1 31.1436 141.749 31.0808 141.372 31.0808C140.977 31.0808 140.609 31.1498 140.271 31.2879C139.932 31.4198 139.636 31.6112 139.385 31.8623C139.134 32.1071 138.937 32.3959 138.792 32.7286C138.654 33.055 138.585 33.416 138.585 33.8115C138.585 34.2069 138.654 34.571 138.792 34.9037C138.937 35.2302 139.134 35.5189 139.385 35.77C139.636 36.0148 139.932 36.2063 140.271 36.3444C140.609 36.4762 140.977 36.5421 141.372 36.5421C141.749 36.5421 142.1 36.4794 142.427 36.3538C142.753 36.2283 143.051 36.0274 143.321 35.7512L143.764 36.1937C143.475 36.5139 143.12 36.7556 142.7 36.9188C142.279 37.082 141.827 37.1636 141.344 37.1636Z" fill="white"/>
<path d="M146.342 33.4631H149.826V34.0563H146.342V33.4631ZM146.417 36.5045H150.381V37.1071H145.72V30.5158H150.24V31.1184H146.417V36.5045Z" fill="white"/>
<path d="M152.49 37.1071V30.5158H153.187V37.1071H152.49Z" fill="white"/>
<path d="M155.802 37.1071V30.5158H158.269C158.828 30.5158 159.308 30.6068 159.71 30.7889C160.111 30.9647 160.419 31.222 160.632 31.561C160.852 31.8937 160.962 32.2986 160.962 32.7757C160.962 33.2402 160.852 33.642 160.632 33.9809C160.419 34.3136 160.111 34.571 159.71 34.7531C159.308 34.9288 158.828 35.0167 158.269 35.0167H156.188L156.499 34.6966V37.1071H155.802ZM160.303 37.1071L158.608 34.7154H159.361L161.066 37.1071H160.303ZM156.499 34.7531L156.188 34.4235H158.25C158.909 34.4235 159.408 34.2791 159.747 33.9904C160.093 33.7016 160.265 33.2967 160.265 32.7757C160.265 32.2484 160.093 31.8404 159.747 31.5516C159.408 31.2628 158.909 31.1184 158.25 31.1184H156.188L156.499 30.7889V34.7531Z" fill="white"/>
<path d="M162.023 37.1071L165.036 30.5158H165.723L168.736 37.1071H168.002L165.234 30.9207H165.516L162.748 37.1071H162.023ZM163.209 35.3463L163.416 34.7813H167.249L167.456 35.3463H163.209Z" fill="white"/>
<path d="M172.115 37.1636C171.625 37.1636 171.154 37.0851 170.702 36.9282C170.257 36.765 169.912 36.5578 169.667 36.3067L169.94 35.77C170.172 35.996 170.483 36.1875 170.872 36.3444C171.267 36.495 171.682 36.5704 172.115 36.5704C172.529 36.5704 172.865 36.5202 173.122 36.4197C173.386 36.313 173.578 36.1718 173.697 35.996C173.822 35.8202 173.885 35.6256 173.885 35.4122C173.885 35.1548 173.81 34.9477 173.659 34.7907C173.515 34.6338 173.323 34.5114 173.085 34.4235C172.846 34.3293 172.583 34.2477 172.294 34.1787C172.005 34.1096 171.716 34.0374 171.428 33.9621C171.139 33.8805 170.872 33.7738 170.627 33.642C170.389 33.5101 170.194 33.3375 170.043 33.1241C169.899 32.9044 169.827 32.6187 169.827 32.2672C169.827 31.9408 169.912 31.6426 170.081 31.3727C170.257 31.0965 170.524 30.8768 170.881 30.7136C171.239 30.5441 171.697 30.4593 172.256 30.4593C172.626 30.4593 172.994 30.5127 173.358 30.6194C173.722 30.7198 174.036 30.8611 174.299 31.0431L174.064 31.5987C173.782 31.4103 173.48 31.2722 173.16 31.1844C172.846 31.0965 172.542 31.0525 172.247 31.0525C171.851 31.0525 171.525 31.1059 171.267 31.2126C171.01 31.3193 170.819 31.4637 170.693 31.6458C170.574 31.8215 170.514 32.0224 170.514 32.2484C170.514 32.5058 170.586 32.7129 170.731 32.8698C170.881 33.0268 171.076 33.1492 171.315 33.2371C171.559 33.325 171.826 33.4034 172.115 33.4725C172.404 33.5415 172.689 33.6169 172.972 33.6985C173.261 33.7801 173.524 33.8868 173.763 34.0186C174.008 34.1442 174.202 34.3136 174.347 34.5271C174.497 34.7405 174.572 35.0199 174.572 35.3651C174.572 35.6853 174.485 35.9834 174.309 36.2596C174.133 36.5296 173.863 36.7493 173.499 36.9188C173.141 37.082 172.68 37.1636 172.115 37.1636Z" fill="white"/>
</svg>
