<svg width="1881" height="1330" viewBox="0 0 1881 1330" fill="none" xmlns="http://www.w3.org/2000/svg">
<path d="M111.06 0.5H0.5V111.25M111.06 0.5V111.25M111.06 0.5H221.62M111.06 111.25H0.5M111.06 111.25H221.62M111.06 111.25V222M0.5 111.25V222M221.62 0.5V111.25M221.62 0.5H332.18M221.62 111.25H332.18M221.62 111.25V222M332.18 0.5V111.25M332.18 0.5H442.74M332.18 111.25H442.74M332.18 111.25V222M442.74 0.5V111.25M442.74 0.5H553.3M442.74 111.25H553.3M442.74 111.25V222M553.3 0.5V111.25M553.3 0.5H663.86M553.3 111.25H663.86M553.3 111.25V222M663.86 0.5V111.25M663.86 0.5H774.42M663.86 111.25H774.42M663.86 111.25V222M774.42 0.5V111.25M774.42 0.5H884.98M774.42 111.25H884.98M774.42 111.25V222M884.98 0.5V111.25M884.98 0.5H995.54M884.98 111.25H995.54M884.98 111.25V222M995.54 0.5V111.25M995.54 0.5H1106.1M995.54 111.25H1106.1M995.54 111.25V222M1106.1 0.5V111.25M1106.1 0.5H1216.66M1106.1 111.25H1216.66M1106.1 111.25V222M1216.66 0.5V111.25M1216.66 0.5H1327.22M1216.66 111.25H1327.22M1216.66 111.25V222M1327.22 0.5V111.25M1327.22 0.5H1437.78M1327.22 111.25H1437.78M1327.22 111.25V222M1437.78 0.5V111.25M1437.78 0.5H1548.34M1437.78 111.25H1548.34M1437.78 111.25V222M1548.34 0.5V111.25M1548.34 0.5H1658.9M1548.34 111.25H1658.9M1548.34 111.25V222M1658.9 0.5V111.25M1658.9 0.5H1769.46M1658.9 111.25H1769.46M1658.9 111.25V222M1769.46 0.5V111.25M1769.46 0.5H1880.02V111.25M1769.46 111.25H1880.02M1769.46 111.25V222M1880.02 111.25V222M111.06 222H0.5M111.06 222H221.62M111.06 222V332.75M0.5 222V332.75M221.62 222H332.18M221.62 222V332.75M332.18 222H442.74M332.18 222V332.75M442.74 222H553.3M442.74 222V332.75M553.3 222H663.86M553.3 222V332.75M663.86 222H774.42M663.86 222V332.75M774.42 222H884.98M774.42 222V332.75M884.98 222H995.54M884.98 222V332.75M995.54 222H1106.1M995.54 222V332.75M1106.1 222H1216.66M1106.1 222V332.75M1216.66 222H1327.22M1216.66 222V332.75M1327.22 222H1437.78M1327.22 222V332.75M1437.78 222H1548.34M1437.78 222V332.75M1548.34 222H1658.9M1548.34 222V332.75M1658.9 222H1769.46M1658.9 222V332.75M1769.46 222H1880.02M1769.46 222V332.75M1880.02 222V332.75M111.06 332.75H0.5M111.06 332.75H221.62M111.06 332.75V443.5M0.5 332.75V443.5M221.62 332.75H332.18M221.62 332.75V443.5M332.18 332.75H442.74M332.18 332.75V443.5M442.74 332.75H553.3M442.74 332.75V443.5M553.3 332.75H663.86M553.3 332.75V443.5M663.86 332.75H774.42M663.86 332.75V443.5M774.42 332.75H884.98M774.42 332.75V443.5M884.98 332.75H995.54M884.98 332.75V443.5M995.54 332.75H1106.1M995.54 332.75V443.5M1106.1 332.75H1216.66M1106.1 332.75V443.5M1216.66 332.75H1327.22M1216.66 332.75V443.5M1327.22 332.75H1437.78M1327.22 332.75V443.5M1437.78 332.75H1548.34M1437.78 332.75V443.5M1548.34 332.75H1658.9M1548.34 332.75V443.5M1658.9 332.75H1769.46M1658.9 332.75V443.5M1769.46 332.75H1880.02M1769.46 332.75V443.5M1880.02 332.75V443.5M111.06 443.5H0.5M111.06 443.5H221.62M111.06 443.5V554.25M0.5 443.5V554.25M221.62 443.5H332.18M221.62 443.5V554.25M332.18 443.5H442.74M332.18 443.5V554.25M442.74 443.5H553.3M442.74 443.5V554.25M553.3 443.5H663.86M553.3 443.5V554.25M663.86 443.5H774.42M663.86 443.5V554.25M774.42 443.5H884.98M774.42 443.5V554.25M884.98 443.5H995.54M884.98 443.5V554.25M995.54 443.5H1106.1M995.54 443.5V554.25M1106.1 443.5H1216.66M1106.1 443.5V554.25M1216.66 443.5H1327.22M1216.66 443.5V554.25M1327.22 443.5H1437.78M1327.22 443.5V554.25M1437.78 443.5H1548.34M1437.78 443.5V554.25M1548.34 443.5H1658.9M1548.34 443.5V554.25M1658.9 443.5H1769.46M1658.9 443.5V554.25M1769.46 443.5H1880.02M1769.46 443.5V554.25M1880.02 443.5V554.25M111.06 554.25H0.5M111.06 554.25H221.62M111.06 554.25V665M0.5 554.25V665M221.62 554.25H332.18M221.62 554.25V665M332.18 554.25H442.74M332.18 554.25V665M442.74 554.25H553.3M442.74 554.25V665M553.3 554.25H663.86M553.3 554.25V665M663.86 554.25H774.42M663.86 554.25V665M774.42 554.25H884.98M774.42 554.25V665M884.98 554.25H995.54M884.98 554.25V665M995.54 554.25H1106.1M995.54 554.25V665M1106.1 554.25H1216.66M1106.1 554.25V665M1216.66 554.25H1327.22M1216.66 554.25V665M1327.22 554.25H1437.78M1327.22 554.25V665M1437.78 554.25H1548.34M1437.78 554.25V665M1548.34 554.25H1658.9M1548.34 554.25V665M1658.9 554.25H1769.46M1658.9 554.25V665M1769.46 554.25H1880.02M1769.46 554.25V665M1880.02 554.25V665M111.06 665H0.5M111.06 665H221.62M111.06 665V775.75M0.5 665V775.75M221.62 665H332.18M221.62 665V775.75M332.18 665H442.74M332.18 665V775.75M442.74 665H553.3M442.74 665V775.75M553.3 665H663.86M553.3 665V775.75M663.86 665H774.42M663.86 665V775.75M774.42 665H884.98M774.42 665V775.75M884.98 665H995.54M884.98 665V775.75M995.54 665H1106.1M995.54 665V775.75M1106.1 665H1216.66M1106.1 665V775.75M1216.66 665H1327.22M1216.66 665V775.75M1327.22 665H1437.78M1327.22 665V775.75M1437.78 665H1548.34M1437.78 665V775.75M1548.34 665H1658.9M1548.34 665V775.75M1658.9 665H1769.46M1658.9 665V775.75M1769.46 665H1880.02M1769.46 665V775.75M1880.02 665V775.75M111.06 775.75H0.5M111.06 775.75H221.62M111.06 775.75V886.5M0.5 775.75V886.5M221.62 775.75H332.18M221.62 775.75V886.5M332.18 775.75H442.74M332.18 775.75V886.5M442.74 775.75H553.3M442.74 775.75V886.5M553.3 775.75H663.86M553.3 775.75V886.5M663.86 775.75H774.42M663.86 775.75V886.5M774.42 775.75H884.98M774.42 775.75V886.5M884.98 775.75H995.54M884.98 775.75V886.5M995.54 775.75H1106.1M995.54 775.75V886.5M1106.1 775.75H1216.66M1106.1 775.75V886.5M1216.66 775.75H1327.22M1216.66 775.75V886.5M1327.22 775.75H1437.78M1327.22 775.75V886.5M1437.78 775.75H1548.34M1437.78 775.75V886.5M1548.34 775.75H1658.9M1548.34 775.75V886.5M1658.9 775.75H1769.46M1658.9 775.75V886.5M1769.46 775.75H1880.02M1769.46 775.75V886.5M1880.02 775.75V886.5M111.06 886.5H0.5M111.06 886.5H221.62M111.06 886.5V997.25M0.5 886.5V997.25M221.62 886.5H332.18M221.62 886.5V997.25M332.18 886.5H442.74M332.18 886.5V997.25M442.74 886.5H553.3M442.74 886.5V997.25M553.3 886.5H663.86M553.3 886.5V997.25M663.86 886.5H774.42M663.86 886.5V997.25M774.42 886.5H884.98M774.42 886.5V997.25M884.98 886.5H995.54M884.98 886.5V997.25M995.54 886.5H1106.1M995.54 886.5V997.25M1106.1 886.5H1216.66M1106.1 886.5V997.25M1216.66 886.5H1327.22M1216.66 886.5V997.25M1327.22 886.5H1437.78M1327.22 886.5V997.25M1437.78 886.5H1548.34M1437.78 886.5V997.25M1548.34 886.5H1658.9M1548.34 886.5V997.25M1658.9 886.5H1769.46M1658.9 886.5V997.25M1769.46 886.5H1880.02M1769.46 886.5V997.25M1880.02 886.5V997.25M111.06 997.25H0.5M111.06 997.25H221.62M111.06 997.25V1108M0.5 997.25V1108M221.62 997.25H332.18M221.62 997.25V1108M332.18 997.25H442.74M332.18 997.25V1108M442.74 997.25H553.3M442.74 997.25V1108M553.3 997.25H663.86M553.3 997.25V1108M663.86 997.25H774.42M663.86 997.25V1108M774.42 997.25H884.98M774.42 997.25V1108M884.98 997.25H995.54M884.98 997.25V1108M995.54 997.25H1106.1M995.54 997.25V1108M1106.1 997.25H1216.66M1106.1 997.25V1108M1216.66 997.25H1327.22M1216.66 997.25V1108M1327.22 997.25H1437.78M1327.22 997.25V1108M1437.78 997.25H1548.34M1437.78 997.25V1108M1548.34 997.25H1658.9M1548.34 997.25V1108M1658.9 997.25H1769.46M1658.9 997.25V1108M1769.46 997.25H1880.02M1769.46 997.25V1108M1880.02 997.25V1108M111.06 1108H0.5M111.06 1108H221.62M111.06 1108V1218.75M0.5 1108V1218.75M221.62 1108H332.18M221.62 1108V1218.75M332.18 1108H442.74M332.18 1108V1218.75M442.74 1108H553.3M442.74 1108V1218.75M553.3 1108H663.86M553.3 1108V1218.75M663.86 1108H774.42M663.86 1108V1218.75M774.42 1108H884.98M774.42 1108V1218.75M884.98 1108H995.54M884.98 1108V1218.75M995.54 1108H1106.1M995.54 1108V1218.75M1106.1 1108H1216.66M1106.1 1108V1218.75M1216.66 1108H1327.22M1216.66 1108V1218.75M1327.22 1108H1437.78M1327.22 1108V1218.75M1437.78 1108H1548.34M1437.78 1108V1218.75M1548.34 1108H1658.9M1548.34 1108V1218.75M1658.9 1108H1769.46M1658.9 1108V1218.75M1769.46 1108H1880.02M1769.46 1108V1218.75M1880.02 1108V1218.75M111.06 1218.75H0.5M111.06 1218.75H221.62M111.06 1218.75V1329.5M0.5 1218.75V1329.5H111.06M221.62 1218.75H332.18M221.62 1218.75V1329.5M332.18 1218.75H442.74M332.18 1218.75V1329.5M442.74 1218.75H553.3M442.74 1218.75V1329.5M553.3 1218.75H663.86M553.3 1218.75V1329.5M663.86 1218.75H774.42M663.86 1218.75V1329.5M774.42 1218.75H884.98M774.42 1218.75V1329.5M884.98 1218.75H995.54M884.98 1218.75V1329.5M995.54 1218.75H1106.1M995.54 1218.75V1329.5M1106.1 1218.75H1216.66M1106.1 1218.75V1329.5M1216.66 1218.75H1327.22M1216.66 1218.75V1329.5M1327.22 1218.75H1437.78M1327.22 1218.75V1329.5M1437.78 1218.75H1548.34M1437.78 1218.75V1329.5M1548.34 1218.75H1658.9M1548.34 1218.75V1329.5M1658.9 1218.75H1769.46M1658.9 1218.75V1329.5M1769.46 1218.75H1880.02M1769.46 1218.75V1329.5M1880.02 1218.75V1329.5H1769.46M111.06 1329.5H221.62M221.62 1329.5H332.18M332.18 1329.5H442.74M442.74 1329.5H553.3M553.3 1329.5H663.86M663.86 1329.5H774.42M774.42 1329.5H884.98M884.98 1329.5H995.54M995.54 1329.5H1106.1M1106.1 1329.5H1216.66M1216.66 1329.5H1327.22M1327.22 1329.5H1437.78M1437.78 1329.5H1548.34M1548.34 1329.5H1658.9M1658.9 1329.5H1769.46" stroke="url(#paint0_radial_2337_2404)" stroke-opacity="0.2"/>
<defs>
<radialGradient id="paint0_radial_2337_2404" cx="0" cy="0" r="1" gradientUnits="userSpaceOnUse" gradientTransform="translate(940.26 700.497) rotate(90) scale(627.583 941.178)">
<stop stop-color="#D9D9D9"/>
<stop offset="1" stop-color="#D9D9D9" stop-opacity="0"/>
</radialGradient>
</defs>
</svg>
