<svg width="109" height="109" viewBox="0 0 109 109" fill="none" xmlns="http://www.w3.org/2000/svg">
<circle cx="54.5" cy="54.5" r="47.5" fill="white"/>
<circle cx="54.5" cy="54.5" r="38.0519" stroke="#E9F2F7" stroke-width="0.896226"/>
<circle cx="54.5" cy="54.5" r="54.25" stroke="white" stroke-width="0.5"/>
<path d="M61.0214 39C61.0214 44.336 61.0214 49.6719 61.0214 55.1696C61.2783 55.1189 61.4342 55.0593 61.6623 54.9419C61.696 54.9247 61.7297 54.9075 61.7644 54.8897C61.8734 54.8338 61.9822 54.7773 62.091 54.7208C62.166 54.6822 62.2411 54.6435 62.3162 54.6048C62.773 54.3691 63.227 54.1287 63.6753 53.8776C63.9323 53.7336 64.1902 53.6045 64.4555 53.4735C64.4555 49.7607 64.4555 46.0479 64.4555 42.2226C65.4249 42.2151 66.3943 42.2076 67.3931 42.1999C68.0173 42.195 68.6415 42.1901 69.2657 42.1852C69.595 42.1826 69.9243 42.18 70.2535 42.1774C70.3154 42.1769 70.3154 42.1769 70.3785 42.1764C70.9522 42.1719 71.5259 42.1675 72.0996 42.163C73.0897 42.1554 74.0798 42.1477 75.0699 42.1398C75.1085 42.1395 75.1471 42.1392 75.1868 42.1389C77.7913 42.1181 80.3957 42.0908 83 42.053C83 41.0455 83 40.038 83 39C75.747 39 68.4941 39 61.0214 39ZM33.2482 42.3849C33.1156 42.4859 32.9814 42.5815 32.8433 42.6749C32.7672 42.7309 32.7672 42.7309 32.6895 42.788C32.6895 42.8253 32.6895 42.8626 32.6895 42.9011C32.6416 42.9215 32.6416 42.9215 32.5927 42.9424C32.4326 43.0293 32.3126 43.136 32.178 43.258C32.1302 43.3009 32.0825 43.3438 32.0333 43.388C30.9595 44.3866 30.0735 45.5458 29.3262 46.797C29.263 46.9025 29.1988 47.0073 29.1342 47.112C27.0186 50.6242 26.4931 55.0755 27.481 59.0141C27.4943 59.0679 27.5075 59.1217 27.5212 59.177C27.8601 60.5186 28.4366 61.8338 29.1409 63.0283C29.1652 63.0696 29.1895 63.1109 29.2146 63.1535C29.7008 63.9721 30.2391 64.7326 30.858 65.4594C30.9035 65.5148 30.949 65.5703 30.9959 65.6274C31.6159 66.3773 32.3117 67.0752 33.0902 67.6643C33.1597 67.7195 33.2291 67.7748 33.2985 67.8302C34.2863 68.6087 35.3564 69.2261 36.5243 69.6996C36.5661 69.7172 36.6078 69.7347 36.6508 69.7527C40.5719 71.3983 45.0602 71.312 49.0018 69.8127C49.8598 69.4659 50.6796 69.0582 51.4629 68.5689C51.516 68.5362 51.569 68.5035 51.6237 68.4697C51.7218 68.4085 51.8197 68.3468 51.9172 68.2847C52.1537 68.1342 52.3914 67.9858 52.6291 67.8375C52.6767 67.8078 52.7242 67.7781 52.7732 67.7475C53.0305 67.5871 53.2886 67.4284 53.5485 67.2721C53.9183 67.0485 54.2814 66.8149 54.6443 66.5805C55.0892 66.2933 55.5376 66.0118 55.987 65.7317C56.7198 65.2744 57.4429 64.8041 58.1626 64.3271C58.3291 64.217 58.496 64.1075 58.663 63.9982C59.171 63.6658 59.6744 63.3317 60.1628 62.9717C60.2772 62.8891 60.3917 62.8067 60.5062 62.7244C60.557 62.6878 60.6077 62.6512 60.66 62.6135C60.76 62.5425 60.8617 62.4738 60.9641 62.4064C61.0051 62.8399 61.0311 63.2704 61.0374 63.7058C61.039 63.7929 61.039 63.7929 61.0406 63.8817C61.0439 64.0717 61.0469 64.2618 61.05 64.4519C61.0523 64.5863 61.0546 64.7207 61.057 64.8551C61.0632 65.2085 61.0691 65.562 61.075 65.9155C61.0843 66.4773 61.0939 67.0392 61.1038 67.601C61.1071 67.7943 61.1102 67.9876 61.1134 68.1809C61.1295 69.1214 61.1613 70.0596 61.1931 71C62.3641 71 63.5352 71 64.7417 71C64.7467 69.26 64.7401 67.5212 64.7167 65.7814C64.7157 65.7115 64.7157 65.7115 64.7148 65.6403C64.707 65.0684 64.6989 64.4966 64.6907 63.9248C64.6836 63.4308 64.6768 62.9367 64.6699 62.4427C64.656 61.4317 64.6417 60.4208 64.6272 59.4099C64.8374 59.3014 65.0477 59.193 65.2579 59.0846C65.317 59.0541 65.3761 59.0236 65.437 58.9922C66.6797 58.3515 67.9399 57.7174 69.2562 57.2367C69.4415 57.1689 69.6233 57.0944 69.8053 57.0183C70.2401 56.8384 70.6806 56.6753 71.1235 56.5159C71.1675 56.5 71.2116 56.4842 71.257 56.4678C72.1819 56.1367 73.1212 55.8705 74.0726 55.6245C74.2223 55.5858 74.3718 55.5462 74.5211 55.5055C75.0083 55.3739 75.4961 55.2635 75.9922 55.1696C76.0298 55.1625 76.0673 55.1553 76.1061 55.148C78.2597 54.7415 80.4112 54.5746 82.5993 54.7173C82.408 54.5913 82.2737 54.5634 82.0491 54.5186C82.0108 54.5108 81.9726 54.5031 81.9331 54.4952C81.8059 54.4698 81.6786 54.4451 81.5512 54.4205C81.507 54.4119 81.4628 54.4033 81.4173 54.3944C77.0911 53.5556 72.4411 53.3233 68.1759 54.6608C68.1119 54.6807 68.0479 54.7006 67.9819 54.7211C67.1531 54.9811 66.333 55.2489 65.548 55.622C65.4223 55.6814 65.2957 55.7387 65.169 55.7957C63.5361 56.5359 62.0122 57.4656 60.54 58.4777C60.2877 58.6509 60.0338 58.8218 59.78 58.9929C59.4557 59.2119 59.132 59.4316 58.8106 59.6548C58.3538 59.9717 57.8939 60.2832 57.4287 60.5879C57.1734 60.7568 56.9207 60.9293 56.6677 61.1017C56.3855 61.2938 56.1013 61.4825 55.8151 61.6687C55.6661 61.7679 55.5189 61.869 55.372 61.9711C55.0761 62.1762 54.7762 62.375 54.475 62.5724C54.4221 62.6072 54.3693 62.6419 54.3148 62.6776C54.2111 62.7458 54.1074 62.8139 54.0036 62.882C53.8398 62.9895 53.6762 63.0972 53.5127 63.2049C53.4341 63.2567 53.4341 63.2567 53.354 63.3094C53.2212 63.3969 53.0886 63.4845 52.956 63.5722C52.3048 64.0026 51.6504 64.4279 50.9927 64.8486C50.8905 64.914 50.7883 64.9795 50.6863 65.0452C47.6641 66.9884 44.2338 67.7932 40.6662 67.0597C37.8472 66.4451 35.0757 64.7144 33.4336 62.3498C33.3943 62.2946 33.3549 62.2393 33.3144 62.1824C32.3201 60.7514 31.6378 59.1511 31.3731 57.4311C31.3665 57.3887 31.3598 57.3463 31.353 57.3027C30.9187 54.3774 31.6146 51.1938 33.2619 48.7244C33.3085 48.6532 33.355 48.582 33.4016 48.5108C33.8656 47.8069 34.3945 47.1845 34.979 46.576C35.0402 46.5119 35.0402 46.5119 35.1026 46.4466C35.4017 46.142 35.7281 45.8758 36.0664 45.6148C36.0973 45.5907 36.1282 45.5666 36.1601 45.5417C37.6884 44.3559 39.566 43.6339 41.5039 43.4664C41.5536 43.4617 41.6034 43.4569 41.6546 43.452C43.499 43.2907 45.3419 43.3637 47.113 43.9187C47.1596 43.9333 47.2062 43.9479 47.2542 43.9629C48.2966 44.2971 49.2691 44.7973 50.1465 45.4452C50.2294 45.504 50.2294 45.504 50.314 45.564C50.9514 46.0227 51.6064 46.5229 52.0925 47.1413C52.3282 47.113 52.4184 46.9974 52.5683 46.8233C52.7223 46.648 52.8758 46.4766 53.0441 46.3145C53.3007 46.0651 53.5363 45.7983 53.7595 45.5194C53.9175 45.327 54.0975 45.159 54.2778 44.987C54.3228 44.9435 54.3678 44.9 54.4142 44.8551C54.478 44.794 54.478 44.794 54.5432 44.7317C54.6807 44.5837 54.7883 44.4273 54.8971 44.2579C54.855 44.217 54.8128 44.176 54.7694 44.1338C54.2603 43.6363 54.2603 43.6363 54.1137 43.4523C53.9697 43.2832 53.8132 43.148 53.643 43.0053C53.525 42.9025 53.4174 42.7944 53.3088 42.682C52.3379 41.7136 51.0094 41.037 49.7691 40.4761C49.6749 40.4332 49.5811 40.3896 49.4876 40.3453C49.0558 40.1437 48.6122 39.9914 48.1576 39.8481C48.1188 39.8358 48.0801 39.8235 48.0402 39.8108C46.9497 39.4666 45.8463 39.2437 44.7091 39.1131C44.6426 39.105 44.6426 39.105 44.5747 39.0967C40.4033 38.6491 36.5191 39.8594 33.2482 42.3849Z" fill="#24ACE4"/>
</svg>
