<svg width="42" height="42" viewBox="0 0 42 42" fill="none" xmlns="http://www.w3.org/2000/svg">
<rect width="42" height="42" rx="6" fill="white"/>
<path d="M25.5 10.5H16.5C15.9033 10.5 15.331 10.7371 14.909 11.159C14.4871 11.581 14.25 12.1533 14.25 12.75V29.25C14.25 29.8467 14.4871 30.419 14.909 30.841C15.331 31.2629 15.9033 31.5 16.5 31.5H25.5C26.0967 31.5 26.669 31.2629 27.091 30.841C27.5129 30.419 27.75 29.8467 27.75 29.25V12.75C27.75 12.1533 27.5129 11.581 27.091 11.159C26.669 10.7371 26.0967 10.5 25.5 10.5ZM16.5 12H25.5C25.6989 12 25.8897 12.079 26.0303 12.2197C26.171 12.3603 26.25 12.5511 26.25 12.75V13.5H15.75V12.75C15.75 12.5511 15.829 12.3603 15.9697 12.2197C16.1103 12.079 16.3011 12 16.5 12ZM25.5 30H16.5C16.3011 30 16.1103 29.921 15.9697 29.7803C15.829 29.6397 15.75 29.4489 15.75 29.25V28.5H26.25V29.25C26.25 29.4489 26.171 29.6397 26.0303 29.7803C25.8897 29.921 25.6989 30 25.5 30Z" fill="#24ACE4"/>
</svg>
