<svg width="58" height="58" viewBox="0 0 58 58" fill="none" xmlns="http://www.w3.org/2000/svg">
<rect width="58" height="58" rx="8.44444" fill="white"/>
<g clip-path="url(#clip0_2320_953)">
<path d="M44.7874 26.4888L41.5974 20.1063C41.4799 19.8714 41.3173 19.6619 41.1188 19.4898C40.9203 19.3178 40.6899 19.1865 40.4407 19.1035C40.1915 19.0205 39.9284 18.9874 39.6664 19.0061C39.4043 19.0248 39.1486 19.095 38.9137 19.2125L35.8049 20.7663L29.2562 19.0338C29.0882 18.99 28.9117 18.99 28.7437 19.0338L22.1949 20.7663L19.0862 19.2125C18.8513 19.095 18.5955 19.0248 18.3335 19.0061C18.0715 18.9874 17.8084 19.0205 17.5592 19.1035C17.31 19.1865 17.0796 19.3178 16.8811 19.4898C16.6826 19.6619 16.52 19.8714 16.4024 20.1063L13.2124 26.4875C13.0949 26.7224 13.0248 26.9782 13.0061 27.2402C12.9873 27.5022 13.0204 27.7653 13.1034 28.0145C13.1864 28.2637 13.3177 28.4942 13.4898 28.6926C13.6618 28.8911 13.8713 29.0538 14.1062 29.1713L17.4812 30.86L24.4174 35.8138C24.5197 35.8865 24.6345 35.9395 24.7562 35.97L32.7562 37.97C32.9237 38.012 33.0993 38.0099 33.2658 37.9639C33.4323 37.9179 33.584 37.8296 33.7062 37.7075L38.7062 32.7075L40.5912 30.8225L43.8937 29.1713C44.3678 28.9339 44.7283 28.5181 44.8959 28.015C45.0635 27.512 45.0245 26.963 44.7874 26.4888ZM37.9262 30.66L33.6249 27.215C33.4323 27.0607 33.1893 26.9831 32.9428 26.9972C32.6964 27.0113 32.4638 27.116 32.2899 27.2913C30.0637 29.5338 27.5824 29.25 25.9999 28.25L31.4049 23H35.3812L38.7824 29.8013L37.9262 30.66ZM32.6924 35.8925L25.4274 34.0763L19.2774 29.6838L22.7774 22.6838L28.9999 21.035L30.2249 21.3588L24.5999 26.8188L24.5899 26.83C24.3782 27.0418 24.2167 27.2984 24.1174 27.5808C24.0181 27.8633 23.9834 28.1645 24.0161 28.4622C24.0487 28.7599 24.1478 29.0464 24.3059 29.3007C24.4641 29.5549 24.6774 29.7704 24.9299 29.9313C27.4999 31.5725 30.6012 31.3063 33.0437 29.3063L36.4999 32.0825L32.6924 35.8925ZM29.4774 40.2425C29.4234 40.4587 29.2988 40.6506 29.1233 40.7878C28.9478 40.925 28.7315 40.9997 28.5087 41C28.4265 40.9999 28.3447 40.9898 28.2649 40.97L23.0512 39.6663C22.9294 39.6362 22.8144 39.5832 22.7124 39.51L19.4187 37.1575C19.2162 36.9985 19.0828 36.7675 19.0463 36.5126C19.0099 36.2577 19.0731 35.9986 19.2229 35.7892C19.3728 35.5797 19.5976 35.4362 19.8506 35.3884C20.1036 35.3406 20.3653 35.3922 20.5812 35.5325L23.7199 37.775L28.7499 39.03C29.0072 39.0944 29.2283 39.2583 29.3648 39.4856C29.5012 39.713 29.5417 39.9853 29.4774 40.2425Z" fill="#24ACE4"/>
</g>
<defs>
<clipPath id="clip0_2320_953">
<rect width="32" height="32" fill="white" transform="translate(13 13)"/>
</clipPath>
</defs>
</svg>
