<svg width="42" height="42" viewBox="0 0 42 42" fill="none" xmlns="http://www.w3.org/2000/svg">
<rect width="42" height="42" rx="6" fill="white"/>
<path d="M27.9228 26.8859C28.4411 25.8111 28.6954 24.6282 28.6646 23.4354C28.6339 22.2426 28.319 21.0744 27.7461 20.0277C27.1732 18.981 26.3589 18.0861 25.3707 17.4174C24.3825 16.7486 23.249 16.3253 22.0644 16.1825C21.6682 15.2689 21.0941 14.4434 20.3754 13.754C19.6568 13.0647 18.8081 12.5254 17.8788 12.1675C16.9496 11.8097 15.9583 11.6405 14.963 11.6697C13.9676 11.699 12.988 11.9263 12.0814 12.3381C11.1748 12.75 10.3593 13.3383 9.68242 14.0687C9.00558 14.7991 8.48096 15.657 8.13918 16.5923C7.7974 17.5276 7.6453 18.5216 7.69175 19.5163C7.7382 20.5111 7.98227 21.4866 8.40972 22.3859L7.72816 24.7025C7.65195 24.9611 7.64686 25.2355 7.71341 25.4967C7.77996 25.758 7.91569 25.9965 8.10633 26.1871C8.29697 26.3778 8.53547 26.5135 8.79673 26.5801C9.05799 26.6466 9.33236 26.6415 9.59097 26.5653L11.9075 25.8838C12.6508 26.2435 13.449 26.4764 14.2691 26.5728C14.6671 27.5053 15.2501 28.3474 15.9828 29.0483C16.7156 29.7491 17.5828 30.2941 18.532 30.6503C19.4813 31.0065 20.493 31.1666 21.5058 31.1207C22.5187 31.0749 23.5118 30.8242 24.425 30.3838L26.7416 31.0653C27.0002 31.1415 27.2746 31.1466 27.5358 31.0801C27.7971 31.0135 28.0356 30.8778 28.2262 30.6871C28.4169 30.4965 28.5526 30.258 28.6192 29.9967C28.6857 29.7355 28.6806 29.4611 28.6044 29.2025L27.9228 26.8859ZM18.5413 23.6272C18.3188 23.6272 18.1013 23.5612 17.9163 23.4376C17.7313 23.314 17.5871 23.1383 17.5019 22.9327C17.4168 22.7271 17.3945 22.5009 17.4379 22.2827C17.4813 22.0645 17.5885 21.864 17.7458 21.7067C17.9031 21.5494 18.1036 21.4422 18.3218 21.3988C18.54 21.3554 18.7662 21.3777 18.9718 21.4628C19.1774 21.548 19.3531 21.6922 19.4767 21.8772C19.6003 22.0622 19.6663 22.2797 19.6663 22.5022C19.6663 22.8006 19.5478 23.0867 19.3368 23.2977C19.1258 23.5087 18.8397 23.6272 18.5413 23.6272ZM13.6663 23.6272C13.6668 24.0768 13.7076 24.5255 13.7882 24.9678C13.2822 24.8492 12.794 24.6648 12.336 24.4194C12.1634 24.327 11.9615 24.3058 11.7735 24.3603L9.16628 25.1272L9.93222 22.5247C9.9867 22.3367 9.9655 22.1348 9.87316 21.9622C9.10474 20.5681 8.9216 18.9258 9.36404 17.3966C9.80648 15.8675 10.8383 14.5767 12.2324 13.8083C13.6265 13.0399 15.2688 12.8567 16.7979 13.2992C18.3271 13.7416 19.6179 14.7734 20.3863 16.1675C18.5432 16.3627 16.8373 17.2325 15.5968 18.6096C14.3563 19.9867 13.6687 21.7738 13.6663 23.6272ZM23.7913 23.6272C23.5688 23.6272 23.3513 23.5612 23.1663 23.4376C22.9813 23.314 22.8371 23.1383 22.7519 22.9327C22.6668 22.7271 22.6445 22.5009 22.6879 22.2827C22.7313 22.0645 22.8385 21.864 22.9958 21.7067C23.1531 21.5494 23.3536 21.4422 23.5718 21.3988C23.79 21.3554 24.0162 21.3777 24.2218 21.4628C24.4274 21.548 24.6031 21.6922 24.7267 21.8772C24.8503 22.0622 24.9163 22.2797 24.9163 22.5022C24.9163 22.8006 24.7978 23.0867 24.5868 23.2977C24.3758 23.5087 24.0897 23.6272 23.7913 23.6272Z" fill="#24ACE4"/>
</svg>
