<svg width="28" height="28" viewBox="0 0 28 28" fill="none" xmlns="http://www.w3.org/2000/svg">
<rect width="28" height="28" rx="6" fill="#92D6F2"/>
<path d="M14 6.6875C12.5537 6.6875 11.1399 7.11637 9.9374 7.91988C8.73486 8.72339 7.7976 9.86544 7.24413 11.2016C6.69067 12.5378 6.54586 14.0081 6.82801 15.4266C7.11017 16.8451 7.80661 18.148 8.82928 19.1707C9.85196 20.1934 11.1549 20.8898 12.5734 21.172C13.9919 21.4541 15.4622 21.3093 16.7984 20.7559C18.1346 20.2024 19.2766 19.2651 20.0801 18.0626C20.8836 16.8601 21.3125 15.4463 21.3125 14C21.3105 12.0612 20.5394 10.2025 19.1685 8.83154C17.7975 7.46063 15.9388 6.68955 14 6.6875ZM17.2105 12.7105L13.273 16.648C13.2207 16.7003 13.1587 16.7418 13.0904 16.7701C13.0221 16.7984 12.9489 16.8129 12.875 16.8129C12.8011 16.8129 12.7279 16.7984 12.6596 16.7701C12.5913 16.7418 12.5293 16.7003 12.477 16.648L10.7895 14.9605C10.684 14.8549 10.6247 14.7118 10.6247 14.5625C10.6247 14.4132 10.684 14.2701 10.7895 14.1645C10.8951 14.059 11.0382 13.9997 11.1875 13.9997C11.3368 13.9997 11.4799 14.059 11.5855 14.1645L12.875 15.4548L16.4145 11.9145C16.4668 11.8623 16.5288 11.8208 16.5971 11.7925C16.6654 11.7642 16.7386 11.7497 16.8125 11.7497C16.8864 11.7497 16.9596 11.7642 17.0279 11.7925C17.0962 11.8208 17.1582 11.8623 17.2105 11.9145C17.2627 11.9668 17.3042 12.0288 17.3325 12.0971C17.3608 12.1654 17.3753 12.2386 17.3753 12.3125C17.3753 12.3864 17.3608 12.4596 17.3325 12.5279C17.3042 12.5962 17.2627 12.6582 17.2105 12.7105Z" fill="#24ACE4"/>
</svg>
