<svg width="61" height="61" viewBox="0 0 61 61" fill="none" xmlns="http://www.w3.org/2000/svg">
<g filter="url(#filter0_d_2334_1869)">
<rect x="2.38475" y="1.19238" width="56.23" height="56.23" rx="8" fill="white" shape-rendering="crispEdges"/>
<path d="M38.5634 25.0092L33.2918 19.7376C33.2218 19.6677 33.1387 19.6123 33.0473 19.5745C32.9559 19.5367 32.8579 19.5173 32.759 19.5173H23.722C23.3226 19.5173 22.9395 19.676 22.657 19.9585C22.3746 20.2409 22.2159 20.624 22.2159 21.0235V37.5913C22.2159 37.9907 22.3746 38.3738 22.657 38.6563C22.9395 38.9387 23.3226 39.0974 23.722 39.0974H37.2775C37.6769 39.0974 38.06 38.9387 38.3425 38.6563C38.625 38.3738 38.7836 37.9907 38.7836 37.5913V25.542C38.7837 25.4431 38.7643 25.3451 38.7265 25.2537C38.6887 25.1622 38.6333 25.0792 38.5634 25.0092ZM32.759 32.3197H28.2405C28.0408 32.3197 27.8492 32.2404 27.708 32.0991C27.5668 31.9579 27.4874 31.7663 27.4874 31.5666C27.4874 31.3669 27.5668 31.1753 27.708 31.0341C27.8492 30.8929 28.0408 30.8135 28.2405 30.8135H32.759C32.9587 30.8135 33.1503 30.8929 33.2915 31.0341C33.4327 31.1753 33.5121 31.3669 33.5121 31.5666C33.5121 31.7663 33.4327 31.9579 33.2915 32.0991C33.1503 32.2404 32.9587 32.3197 32.759 32.3197ZM32.759 25.542V21.3351L36.9659 25.542H32.759Z" fill="#24ACE4"/>
</g>
<defs>
<filter id="filter0_d_2334_1869" x="-2.39399e-07" y="-1.197e-07" width="61" height="60.9995" filterUnits="userSpaceOnUse" color-interpolation-filters="sRGB">
<feFlood flood-opacity="0" result="BackgroundImageFix"/>
<feColorMatrix in="SourceAlpha" type="matrix" values="0 0 0 0 0 0 0 0 0 0 0 0 0 0 0 0 0 0 127 0" result="hardAlpha"/>
<feOffset dy="1.1875"/>
<feGaussianBlur stdDeviation="1.1875"/>
<feComposite in2="hardAlpha" operator="out"/>
<feColorMatrix type="matrix" values="0 0 0 0 0 0 0 0 0 0 0 0 0 0 0 0 0 0 0.05 0"/>
<feBlend mode="normal" in2="BackgroundImageFix" result="effect1_dropShadow_2334_1869"/>
<feBlend mode="normal" in="SourceGraphic" in2="effect1_dropShadow_2334_1869" result="shape"/>
</filter>
</defs>
</svg>
