<svg width="61" height="61" viewBox="0 0 61 61" fill="none" xmlns="http://www.w3.org/2000/svg">
<g filter="url(#filter0_d_2334_1859)">
<rect x="2.38477" y="1.19239" width="56.2305" height="56.2305" rx="8" fill="white" shape-rendering="crispEdges"/>
<path d="M30.8765 19.5175C28.3807 19.5202 25.988 20.5129 24.2232 22.2777C22.4584 24.0425 21.4657 26.4353 21.463 28.9311V36.8385C21.463 37.2379 21.6216 37.621 21.9041 37.9035C22.1866 38.186 22.5697 38.3447 22.9691 38.3447H30.8765C33.3732 38.3447 35.7676 37.3529 37.5329 35.5875C39.2983 33.8221 40.2901 31.4277 40.2901 28.9311C40.2901 26.4344 39.2983 24.0401 37.5329 22.2747C35.7676 20.5093 33.3732 19.5175 30.8765 19.5175ZM33.8889 31.5669H27.4877C27.2879 31.5669 27.0964 31.4875 26.9551 31.3463C26.8139 31.2051 26.7346 31.0135 26.7346 30.8138C26.7346 30.6141 26.8139 30.4225 26.9551 30.2813C27.0964 30.14 27.2879 30.0607 27.4877 30.0607H33.8889C34.0886 30.0607 34.2802 30.14 34.4214 30.2813C34.5626 30.4225 34.642 30.6141 34.642 30.8138C34.642 31.0135 34.5626 31.2051 34.4214 31.3463C34.2802 31.4875 34.0886 31.5669 33.8889 31.5669ZM33.8889 28.5545H27.4877C27.2879 28.5545 27.0964 28.4752 26.9551 28.334C26.8139 28.1927 26.7346 28.0012 26.7346 27.8014C26.7346 27.6017 26.8139 27.4102 26.9551 27.2689C27.0964 27.1277 27.2879 27.0484 27.4877 27.0484H33.8889C34.0886 27.0484 34.2802 27.1277 34.4214 27.2689C34.5626 27.4102 34.642 27.6017 34.642 27.8014C34.642 28.0012 34.5626 28.1927 34.4214 28.334C34.2802 28.4752 34.0886 28.5545 33.8889 28.5545Z" fill="#24ACE4"/>
</g>
<defs>
<filter id="filter0_d_2334_1859" x="-2.394e-07" y="-1.197e-07" width="61" height="61" filterUnits="userSpaceOnUse" color-interpolation-filters="sRGB">
<feFlood flood-opacity="0" result="BackgroundImageFix"/>
<feColorMatrix in="SourceAlpha" type="matrix" values="0 0 0 0 0 0 0 0 0 0 0 0 0 0 0 0 0 0 127 0" result="hardAlpha"/>
<feOffset dy="1.1875"/>
<feGaussianBlur stdDeviation="1.1875"/>
<feComposite in2="hardAlpha" operator="out"/>
<feColorMatrix type="matrix" values="0 0 0 0 0 0 0 0 0 0 0 0 0 0 0 0 0 0 0.05 0"/>
<feBlend mode="normal" in2="BackgroundImageFix" result="effect1_dropShadow_2334_1859"/>
<feBlend mode="normal" in="SourceGraphic" in2="effect1_dropShadow_2334_1859" result="shape"/>
</filter>
</defs>
</svg>
