<svg width="61" height="61" viewBox="0 0 61 61" fill="none" xmlns="http://www.w3.org/2000/svg">
<g filter="url(#filter0_d_2334_1899)">
<rect x="2.38477" y="1.19239" width="56.2305" height="56.2305" rx="8" fill="white" shape-rendering="crispEdges"/>
<path d="M30.5 19.5175C28.5637 19.5175 26.6709 20.0917 25.0609 21.1674C23.4509 22.2432 22.1961 23.7722 21.4551 25.5611C20.7141 27.35 20.5202 29.3185 20.898 31.2176C21.2757 33.1167 22.2082 34.8611 23.5773 36.2303C24.9465 37.5994 26.6909 38.5319 28.59 38.9096C30.4891 39.2874 32.4576 39.0935 34.2465 38.3525C36.0354 37.6115 37.5644 36.3567 38.6402 34.7467C39.7159 33.1367 40.2901 31.2439 40.2901 29.3076C40.2874 26.712 39.255 24.2234 37.4196 22.388C35.5842 20.5526 33.0957 19.5202 30.5 19.5175ZM34.7982 27.5812L29.5266 32.8528C29.4567 32.9228 29.3736 32.9783 29.2822 33.0162C29.1908 33.0541 29.0928 33.0736 28.9938 33.0736C28.8949 33.0736 28.7969 33.0541 28.7054 33.0162C28.614 32.9783 28.531 32.9228 28.461 32.8528L26.2018 30.5935C26.0605 30.4522 25.9811 30.2605 25.9811 30.0607C25.9811 29.8609 26.0605 29.6692 26.2018 29.5279C26.3431 29.3866 26.5347 29.3072 26.7346 29.3072C26.9344 29.3072 27.1261 29.3866 27.2674 29.5279L28.9938 31.2553L33.7326 26.5155C33.8026 26.4456 33.8857 26.3901 33.9771 26.3522C34.0685 26.3143 34.1665 26.2948 34.2654 26.2948C34.3644 26.2948 34.4624 26.3143 34.5538 26.3522C34.6452 26.3901 34.7283 26.4456 34.7982 26.5155C34.8682 26.5855 34.9237 26.6686 34.9616 26.76C34.9995 26.8514 35.0189 26.9494 35.0189 27.0484C35.0189 27.1473 34.9995 27.2453 34.9616 27.3367C34.9237 27.4281 34.8682 27.5112 34.7982 27.5812Z" fill="#24ACE4"/>
</g>
<defs>
<filter id="filter0_d_2334_1899" x="-2.39399e-07" y="-1.197e-07" width="61" height="61" filterUnits="userSpaceOnUse" color-interpolation-filters="sRGB">
<feFlood flood-opacity="0" result="BackgroundImageFix"/>
<feColorMatrix in="SourceAlpha" type="matrix" values="0 0 0 0 0 0 0 0 0 0 0 0 0 0 0 0 0 0 127 0" result="hardAlpha"/>
<feOffset dy="1.1875"/>
<feGaussianBlur stdDeviation="1.1875"/>
<feComposite in2="hardAlpha" operator="out"/>
<feColorMatrix type="matrix" values="0 0 0 0 0 0 0 0 0 0 0 0 0 0 0 0 0 0 0.05 0"/>
<feBlend mode="normal" in2="BackgroundImageFix" result="effect1_dropShadow_2334_1899"/>
<feBlend mode="normal" in="SourceGraphic" in2="effect1_dropShadow_2334_1899" result="shape"/>
</filter>
</defs>
</svg>
