<svg width="61" height="61" viewBox="0 0 61 61" fill="none" xmlns="http://www.w3.org/2000/svg">
<g filter="url(#filter0_d_2334_1879)">
<rect x="2.38477" y="1.19239" width="56.2305" height="56.2305" rx="8" fill="white" shape-rendering="crispEdges"/>
<path d="M34.2655 27.8012C34.2655 28.8438 33.9563 29.863 33.377 30.73C32.7978 31.5969 31.9745 32.2725 31.0112 32.6715C30.048 33.0705 28.988 33.1749 27.9654 32.9715C26.9428 32.7681 26.0035 32.266 25.2663 31.5288C24.529 30.7916 24.0269 29.8522 23.8235 28.8297C23.6201 27.8071 23.7245 26.7471 24.1235 25.7839C24.5225 24.8206 25.1982 23.9973 26.0651 23.418C26.932 22.8388 27.9512 22.5296 28.9939 22.5296C30.392 22.5296 31.7328 23.085 32.7214 24.0736C33.7101 25.0622 34.2655 26.4031 34.2655 27.8012ZM40.0699 38.8772C39.9999 38.9472 39.9169 39.0028 39.8255 39.0407C39.734 39.0786 39.636 39.0981 39.5371 39.0981C39.4381 39.0981 39.3401 39.0786 39.2487 39.0407C39.1573 39.0028 39.0742 38.9472 39.0043 38.8772L34.2918 34.1639C32.653 35.5272 30.5517 36.2063 28.425 36.06C26.2982 35.9136 24.3098 34.9529 22.8732 33.3779C21.4367 31.8028 20.6626 29.7346 20.7121 27.6034C20.7616 25.4722 21.6307 23.4421 23.1388 21.9353C24.6468 20.4286 26.6777 19.5612 28.809 19.5137C30.9402 19.4661 33.0077 20.242 34.5815 21.6799C36.1553 23.1178 37.1142 25.1071 37.2587 27.234C37.4032 29.3609 36.7223 31.4616 35.3574 33.0992L40.0699 37.8116C40.1399 37.8816 40.1954 37.9646 40.2333 38.056C40.2712 38.1475 40.2907 38.2455 40.2907 38.3444C40.2907 38.4434 40.2712 38.5414 40.2333 38.6328C40.1954 38.7242 40.1399 38.8073 40.0699 38.8772ZM28.9939 34.579C30.3344 34.579 31.6448 34.1815 32.7594 33.4367C33.874 32.692 34.7427 31.6334 35.2557 30.395C35.7687 29.1565 35.9029 27.7937 35.6414 26.4789C35.3799 25.1642 34.7344 23.9565 33.7865 23.0086C32.8386 22.0607 31.6309 21.4152 30.3161 21.1537C29.0014 20.8921 27.6386 21.0264 26.4001 21.5394C25.1616 22.0524 24.1031 22.9211 23.3583 24.0357C22.6136 25.1503 22.2161 26.4607 22.2161 27.8012C22.2181 29.5982 22.9328 31.321 24.2034 32.5916C25.4741 33.8623 27.1969 34.577 28.9939 34.579Z" fill="#24ACE4"/>
</g>
<defs>
<filter id="filter0_d_2334_1879" x="-2.39399e-07" y="-1.197e-07" width="61" height="61" filterUnits="userSpaceOnUse" color-interpolation-filters="sRGB">
<feFlood flood-opacity="0" result="BackgroundImageFix"/>
<feColorMatrix in="SourceAlpha" type="matrix" values="0 0 0 0 0 0 0 0 0 0 0 0 0 0 0 0 0 0 127 0" result="hardAlpha"/>
<feOffset dy="1.1875"/>
<feGaussianBlur stdDeviation="1.1875"/>
<feComposite in2="hardAlpha" operator="out"/>
<feColorMatrix type="matrix" values="0 0 0 0 0 0 0 0 0 0 0 0 0 0 0 0 0 0 0.05 0"/>
<feBlend mode="normal" in2="BackgroundImageFix" result="effect1_dropShadow_2334_1879"/>
<feBlend mode="normal" in="SourceGraphic" in2="effect1_dropShadow_2334_1879" result="shape"/>
</filter>
</defs>
</svg>
