<svg width="66" height="66" viewBox="0 0 66 66" fill="none" xmlns="http://www.w3.org/2000/svg">
<circle cx="33" cy="33" r="33" fill="white"/>
<path d="M33 20C30.4288 20 27.9154 20.7624 25.7776 22.1909C23.6398 23.6194 21.9735 25.6497 20.9896 28.0251C20.0056 30.4006 19.7482 33.0144 20.2498 35.5362C20.7514 38.0579 21.9895 40.3743 23.8076 42.1924C25.6257 44.0105 27.9421 45.2486 30.4638 45.7502C32.9856 46.2518 35.5995 45.9944 37.9749 45.0104C40.3503 44.0265 42.3807 42.3603 43.8091 40.2224C45.2376 38.0846 46 35.5712 46 33C45.9964 29.5533 44.6256 26.2488 42.1884 23.8116C39.7512 21.3744 36.4467 20.0036 33 20ZM32 27C32 26.7348 32.1054 26.4804 32.2929 26.2929C32.4804 26.1054 32.7348 26 33 26C33.2652 26 33.5196 26.1054 33.7071 26.2929C33.8946 26.4804 34 26.7348 34 27V34C34 34.2652 33.8946 34.5196 33.7071 34.7071C33.5196 34.8946 33.2652 35 33 35C32.7348 35 32.4804 34.8946 32.2929 34.7071C32.1054 34.5196 32 34.2652 32 34V27ZM33 40C32.7033 40 32.4133 39.912 32.1667 39.7472C31.92 39.5824 31.7277 39.3481 31.6142 39.074C31.5007 38.7999 31.471 38.4983 31.5288 38.2074C31.5867 37.9164 31.7296 37.6491 31.9393 37.4393C32.1491 37.2296 32.4164 37.0867 32.7074 37.0288C32.9983 36.9709 33.2999 37.0007 33.574 37.1142C33.8481 37.2277 34.0824 37.42 34.2472 37.6666C34.412 37.9133 34.5 38.2033 34.5 38.5C34.5 38.8978 34.342 39.2794 34.0607 39.5607C33.7794 39.842 33.3978 40 33 40Z" fill="#24ACE4"/>
</svg>
