<svg width="110" height="110" viewBox="0 0 110 110" fill="none" xmlns="http://www.w3.org/2000/svg">
<path d="M0 16C0 7.16344 7.16344 0 16 0H94C102.837 0 110 7.16344 110 16V94C110 102.837 102.837 110 94 110H16C7.16344 110 0 102.837 0 94V16Z" fill="#D9D9D9"/>
<path d="M64.6006 29C64.6006 37.8283 64.6006 46.6566 64.6006 55.7525C65.0205 55.6685 65.2754 55.5699 65.6482 55.3757C65.7032 55.3472 65.7583 55.3187 65.815 55.2894C65.9932 55.1968 66.1709 55.1034 66.3486 55.01C66.4714 54.946 66.5941 54.882 66.7168 54.818C67.4633 54.428 68.2052 54.0303 68.9379 53.6148C69.3579 53.3766 69.7795 53.163 70.213 52.9463C70.213 46.8035 70.213 40.6607 70.213 34.3318C71.7973 34.3194 73.3816 34.3069 75.0139 34.2941C76.034 34.2861 77.0541 34.278 78.0742 34.2698C78.6124 34.2656 79.1505 34.2613 79.6886 34.257C79.7897 34.2562 79.7897 34.2562 79.8928 34.2554C80.8305 34.2479 81.7681 34.2405 82.7057 34.2332C84.3238 34.2206 85.9419 34.2078 87.56 34.1948C87.623 34.1943 87.6861 34.1937 87.7511 34.1932C92.0076 34.1588 96.2638 34.1138 100.52 34.0512C100.52 32.3843 100.52 30.7174 100.52 29C88.6666 29 76.8132 29 64.6006 29ZM19.2114 34.6003C18.9947 34.7674 18.7754 34.9256 18.5497 35.0801C18.4252 35.1727 18.4252 35.1727 18.2983 35.2672C18.2983 35.3289 18.2983 35.3907 18.2983 35.4543C18.22 35.4881 18.22 35.4881 18.1401 35.5226C17.8784 35.6665 17.6823 35.843 17.4623 36.0447C17.3843 36.1158 17.3062 36.1868 17.2259 36.2599C15.471 37.9121 14.0229 39.83 12.8016 41.9C12.6983 42.0746 12.5934 42.248 12.4878 42.4212C9.0304 48.2322 8.17161 55.5968 9.78614 62.1132C9.80779 62.2021 9.82943 62.2911 9.85173 62.3827C10.4056 64.6024 11.3478 66.7783 12.4988 68.7545C12.5386 68.8229 12.5783 68.8912 12.6192 68.9617C13.4138 70.3161 14.2936 71.5744 15.305 72.7767C15.3794 72.8685 15.4538 72.9603 15.5305 73.0548C16.5436 74.2955 17.6809 75.45 18.9531 76.4248C19.0667 76.5161 19.1802 76.6076 19.2936 76.6992C20.9079 77.9873 22.6567 79.0087 24.5655 79.7923C24.6337 79.8212 24.7019 79.8502 24.7722 79.8801C31.1803 82.6026 38.5155 82.4598 44.9572 79.9793C46.3594 79.4056 47.6993 78.731 48.9794 77.9214C49.0661 77.8673 49.1528 77.8132 49.2421 77.7574C49.4025 77.6561 49.5625 77.554 49.7219 77.4512C50.1083 77.2023 50.4967 76.9568 50.8853 76.7113C50.963 76.6621 51.0407 76.613 51.1208 76.5624C51.5412 76.297 51.9631 76.0345 52.3878 75.7759C52.9922 75.4059 53.5856 75.0194 54.1787 74.6317C54.9058 74.1565 55.6386 73.6908 56.3731 73.2273C57.5706 72.4707 58.7524 71.6926 59.9285 70.9034C60.2007 70.7212 60.4734 70.5401 60.7465 70.3593C61.5766 69.8094 62.3992 69.2565 63.1975 68.661C63.3844 68.5243 63.5715 68.3879 63.7588 68.2517C63.8417 68.1912 63.9247 68.1307 64.0101 68.0683C64.1735 67.9508 64.3396 67.8372 64.5071 67.7256C64.574 68.4429 64.6165 69.1552 64.6269 69.8755C64.6295 70.0195 64.6295 70.0195 64.632 70.1665C64.6375 70.4809 64.6424 70.7954 64.6474 71.1098C64.6512 71.3322 64.655 71.5546 64.6589 71.7769C64.669 72.3617 64.6787 72.9465 64.6883 73.5313C64.7036 74.4609 64.7192 75.3905 64.7353 76.3201C64.7407 76.6399 64.7459 76.9597 64.751 77.2795C64.7774 78.8355 64.8294 80.3877 64.8812 81.9437C66.7951 81.9437 68.7089 81.9437 70.6807 81.9437C70.6889 79.0648 70.6781 76.188 70.6398 73.3095C70.6383 73.1939 70.6383 73.1939 70.6367 73.076C70.624 72.13 70.6108 71.1839 70.5974 70.2379C70.5858 69.4205 70.5746 68.6031 70.5635 67.7857C70.5406 66.1131 70.5173 64.4405 70.4936 62.768C70.8372 62.5885 71.1808 62.4091 71.5244 62.2297C71.621 62.1793 71.7176 62.1288 71.8171 62.0769C73.8479 61.0168 75.9075 59.9677 78.0587 59.1725C78.3616 59.0603 78.6586 58.9371 78.9561 58.8111C79.6667 58.5135 80.3866 58.2435 81.1104 57.9799C81.1824 57.9536 81.2544 57.9274 81.3285 57.9004C82.8402 57.3526 84.3752 56.912 85.93 56.5051C86.1748 56.441 86.4191 56.3755 86.663 56.3083C87.4593 56.0905 88.2565 55.9078 89.0672 55.7525C89.1286 55.7406 89.1901 55.7288 89.2534 55.7167C92.773 55.0441 96.2892 54.768 99.8652 55.0041C99.5526 54.7957 99.333 54.7496 98.966 54.6753C98.9034 54.6625 98.8409 54.6498 98.7765 54.6366C98.5686 54.5946 98.3604 54.5537 98.1523 54.5131C98.0801 54.4988 98.0079 54.4846 97.9335 54.4699C90.8632 53.0822 83.2638 52.6978 76.2931 54.9106C76.1885 54.9435 76.0839 54.9765 75.9762 55.0104C74.6216 55.4406 73.2813 55.8836 71.9984 56.501C71.793 56.5992 71.5862 56.694 71.379 56.7883C68.7104 58.013 66.22 59.5512 63.8139 61.2256C63.4016 61.5122 62.9866 61.7949 62.572 62.0781C62.0418 62.4403 61.5129 62.8039 60.9876 63.1732C60.2411 63.6974 59.4894 64.2128 58.7291 64.7169C58.3119 64.9964 57.8989 65.2819 57.4856 65.5671C57.0243 65.8849 56.5599 66.1971 56.0921 66.5052C55.8486 66.6692 55.608 66.8365 55.3679 67.0054C54.8843 67.3448 54.3943 67.6737 53.902 68.0004C53.8156 68.0578 53.7292 68.1152 53.6402 68.1744C53.4707 68.2872 53.3012 68.3998 53.1316 68.5125C52.864 68.6903 52.5966 68.8685 52.3293 69.0468C52.2009 69.1324 52.2009 69.1324 52.0699 69.2197C51.853 69.3644 51.6362 69.5094 51.4195 69.6545C50.3553 70.3666 49.2857 71.0703 48.2109 71.7662C48.0438 71.8744 47.8769 71.9828 47.7102 72.0915C42.7711 75.3065 37.165 76.6381 31.3345 75.4245C26.7274 74.4077 22.198 71.5443 19.5143 67.632C19.45 67.5406 19.3858 67.4492 19.3196 67.3551C17.6945 64.9875 16.5795 62.3398 16.1469 59.4941C16.136 59.4239 16.1252 59.3538 16.1141 59.2816C15.4043 54.4418 16.5416 49.1746 19.2337 45.0889C19.3098 44.9711 19.386 44.8534 19.4621 44.7356C20.2203 43.5709 21.0848 42.5412 22.0399 41.5344C22.1399 41.4284 22.1399 41.4284 22.242 41.3202C22.7308 40.8163 23.2643 40.376 23.8172 39.9442C23.8676 39.9043 23.9181 39.8643 23.9702 39.8232C26.4679 37.8613 29.5364 36.6667 32.7035 36.3897C32.7848 36.3818 32.8661 36.374 32.9498 36.3659C35.964 36.0988 38.976 36.2196 41.8704 37.138C41.9465 37.1621 42.0227 37.1862 42.1012 37.211C43.8047 37.764 45.3941 38.5915 46.828 39.6636C46.9635 39.7609 46.9635 39.7609 47.1017 39.8601C48.1434 40.619 49.2139 41.4466 50.0084 42.4698C50.3936 42.4228 50.541 42.2316 50.7859 41.9436C51.0377 41.6535 51.2885 41.3699 51.5635 41.1017C51.9829 40.6891 52.3679 40.2477 52.7327 39.7863C52.9909 39.4679 53.2851 39.19 53.5797 38.9054C53.6532 38.8334 53.7268 38.7614 53.8026 38.6872C53.9069 38.5861 53.9069 38.5861 54.0134 38.483C54.2381 38.2382 54.414 37.9795 54.5918 37.6992C54.523 37.6315 54.4541 37.5637 54.3832 37.4939C53.551 36.6707 53.551 36.6707 53.3115 36.3663C53.0762 36.0864 52.8204 35.8628 52.5424 35.6267C52.3495 35.4566 52.1736 35.2778 51.9961 35.0918C50.4093 33.4896 48.2383 32.3702 46.2112 31.4421C46.0573 31.3713 45.904 31.2991 45.7512 31.2257C45.0454 30.8923 44.3205 30.6402 43.5775 30.4031C43.5142 30.3828 43.4509 30.3625 43.3858 30.3415C41.6036 29.772 39.8003 29.4032 37.9417 29.1871C37.833 29.1737 37.833 29.1737 37.7221 29.16C30.9049 28.4194 24.557 30.4218 19.2114 34.6003Z" fill="#1688B6"/>
</svg>
