<svg width="28" height="28" viewBox="0 0 28 28" fill="none" xmlns="http://www.w3.org/2000/svg">
<rect width="28" height="28" rx="6" fill="#92D6F2"/>
<path d="M15.7283 15.2115L17.3455 16.0187C17.2688 16.4018 17.0616 16.7463 16.7593 16.9937C16.4569 17.241 16.0781 17.3758 15.6875 17.3751C14.3453 17.3736 13.0585 16.8397 12.1094 15.8906C11.1603 14.9416 10.6265 13.6548 10.625 12.3126C10.6249 11.9224 10.76 11.5443 11.0073 11.2425C11.2546 10.9407 11.5988 10.734 11.9813 10.6574L12.7885 12.2746L12.1016 13.2969C12.0502 13.3739 12.0187 13.4624 12.0097 13.5545C12.0008 13.6466 12.0147 13.7395 12.0502 13.825C12.4527 14.7815 13.2136 15.5424 14.1702 15.9449C14.2559 15.982 14.3495 15.9972 14.4425 15.9891C14.5356 15.981 14.6251 15.9499 14.7031 15.8985L15.7283 15.2115ZM21.3125 14.0001C21.3128 15.2625 20.9862 16.5036 20.3645 17.6024C19.7429 18.7012 18.8473 19.6204 17.765 20.2704C16.6827 20.9204 15.4506 21.2792 14.1885 21.3117C12.9265 21.3443 11.6775 21.0495 10.5631 20.4561L8.16898 21.2542C7.97076 21.3203 7.75805 21.3299 7.55468 21.2819C7.35132 21.2339 7.16533 21.1302 7.01758 20.9825C6.86983 20.8347 6.76615 20.6487 6.71815 20.4454C6.67016 20.242 6.67975 20.0293 6.74586 19.8311L7.54391 17.4369C7.02229 16.4562 6.73095 15.3696 6.692 14.2595C6.65305 13.1494 6.8675 12.045 7.3191 11.0301C7.77069 10.0153 8.44754 9.11667 9.29829 8.40247C10.149 7.68827 11.1513 7.17726 12.229 6.90825C13.3067 6.63923 14.4316 6.61927 15.5182 6.84988C16.6047 7.08049 17.6245 7.55562 18.5001 8.23919C19.3756 8.92276 20.0839 9.79681 20.5712 10.795C21.0585 11.7932 21.312 12.8893 21.3125 14.0001ZM18.5 15.6876C18.5001 15.5831 18.471 15.4806 18.4161 15.3917C18.3613 15.3028 18.2827 15.2309 18.1892 15.1841L15.9392 14.0591C15.8507 14.015 15.752 13.995 15.6532 14.0012C15.5545 14.0073 15.4591 14.0395 15.3767 14.0943L14.3438 14.7833C13.8697 14.5227 13.4795 14.1325 13.2188 13.6583L13.9079 12.6254C13.9627 12.5431 13.9948 12.4477 14.001 12.3489C14.0072 12.2502 13.9872 12.1515 13.943 12.0629L12.818 9.81294C12.7714 9.71877 12.6993 9.63955 12.61 9.58425C12.5206 9.52895 12.4176 9.49978 12.3125 9.50005C11.5666 9.50005 10.8512 9.79637 10.3238 10.3238C9.79632 10.8513 9.5 11.5666 9.5 12.3126C9.50186 13.953 10.1544 15.5257 11.3143 16.6857C12.4743 17.8457 14.047 18.4982 15.6875 18.5001C16.0568 18.5001 16.4226 18.4273 16.7638 18.286C17.105 18.1446 17.4151 17.9375 17.6762 17.6763C17.9374 17.4151 18.1446 17.1051 18.2859 16.7638C18.4273 16.4226 18.5 16.0569 18.5 15.6876Z" fill="#24ACE4"/>
</svg>
