<svg width="28" height="28" viewBox="0 0 28 28" fill="none" xmlns="http://www.w3.org/2000/svg">
<rect width="28" height="28" rx="6" fill="#92D6F2"/>
<path d="M18.9577 8.94383C18.1091 7.48906 16.9475 6.6875 15.6875 6.6875H12.3125C11.0525 6.6875 9.89094 7.48906 9.04227 8.94383C8.24914 10.303 7.8125 12.1016 7.8125 14C7.8125 15.8984 8.24914 17.697 9.04227 19.0562C9.89094 20.5109 11.0525 21.3125 12.3125 21.3125H15.6875C16.9475 21.3125 18.1091 20.5109 18.9577 19.0562C19.7509 17.697 20.1875 15.8984 20.1875 14C20.1875 12.1016 19.7509 10.303 18.9577 8.94383ZM19.0477 13.4375H16.7977C16.7538 12.2832 16.524 11.1436 16.1171 10.0625H18.268C18.6983 11.0033 18.9823 12.1719 19.0477 13.4375ZM17.5993 8.9375H15.5792C15.3443 8.52991 15.061 8.15218 14.7355 7.8125H15.6875C16.3906 7.8125 17.0516 8.23438 17.5993 8.9375ZM15.6875 20.1875H14.7376C15.0631 19.8478 15.3464 19.4701 15.5813 19.0625H17.6014C17.0516 19.7656 16.3906 20.1875 15.6875 20.1875ZM18.268 17.9375H16.1178C16.5247 16.8564 16.7545 15.7168 16.7984 14.5625H19.0484C18.9823 15.8281 18.6983 16.9967 18.268 17.9375Z" fill="#24ACE4"/>
</svg>
