<svg width="576" height="569" viewBox="0 0 576 569" fill="none" xmlns="http://www.w3.org/2000/svg">
<style>
  @keyframes float {
    0%, 100% { transform: translateY(0); }
    50% { transform: translateY(-12px); }
  }
  @keyframes floatCenter {
    0%, 100% { transform: translateY(0); }
    50% { transform: translateY(-6px); }
  }
  .anim-1 { animation: float 4s ease-in-out 0s infinite; }
  .anim-2 { animation: float 4.2s ease-in-out -0.5s infinite; }
  .anim-3 { animation: float 3.8s ease-in-out -1s infinite; }
  .anim-4 { animation: float 4.5s ease-in-out -1.5s infinite; }
  .anim-5 { animation: float 4.1s ease-in-out -2s infinite; }
  .anim-6 { animation: float 4.4s ease-in-out -2.5s infinite; }
  .anim-7 { animation: float 3.9s ease-in-out -3s infinite; }
  .anim-8 { animation: float 4.3s ease-in-out -3.5s infinite; }
  .anim-center { animation: floatCenter 6s ease-in-out -1s infinite; }
</style>

<circle cx="288" cy="275" r="245.5" stroke="#E9F2F7"/>

<g class="anim-1">
<g filter="url(#filter0_d_2312_208)">
<rect x="55" y="88" width="58" height="58" rx="8" fill="white"/>
<rect x="56" y="89" width="56" height="56" rx="7" stroke="#E9F2F7" stroke-width="2"/>
<path d="M83.8074 102.073C84.6718 101.935 89.4494 102.032 90.5478 102.051C94.9119 102.129 99.684 101.975 104 102.196C100.26 113.693 97.549 112.309 85.8355 112.291C83.8986 112.289 82.166 112.237 80.4474 113.337C79.6724 113.826 79.0613 114.528 78.6901 115.355C78.0102 116.857 77.3238 123.244 76.8039 125.675C76.4522 127.227 76.1232 128.246 74.9756 129.488C72.5692 132.092 67.4503 132.874 64 133C64.2854 130.238 65.0538 126.62 65.4709 123.757C66.1469 120.684 66.1464 116.859 67.2639 113.93C69.724 107.483 77.1391 102.663 83.8074 102.073Z" fill="#FE7A00"/>
<path d="M84.7516 115.097C87.0969 115.04 89.5211 114.993 91.8586 115.105C92.4146 115.246 92.2443 116.04 92.1104 116.345C90.9376 119.014 89.6319 121.43 86.8978 122.753C84.8719 123.368 81.6784 123.252 79.5201 123.153C80.6446 119.365 79.9568 116.295 84.7516 115.097Z" fill="#006598"/>
</g>
</g>

<g class="anim-2">
<g filter="url(#filter1_d_2312_208)">
<rect x="55" y="409" width="58" height="58" rx="8" fill="white"/>
<rect x="56" y="410" width="56" height="56" rx="7" stroke="#E9F2F7" stroke-width="2"/>
<path d="M72.0392 418H85.8073C86.0464 418.154 87.3075 418.401 87.6572 418.488C88.0287 418.583 88.3948 418.699 88.7533 418.835C92.5987 420.241 95.5157 423.429 96.5703 427.377C98.7137 435.324 92.5532 442.884 84.4387 443.008C84.4259 444.445 84.4239 445.882 84.4328 447.32C84.434 448.22 84.4075 449.288 84.4423 450.177L79.7698 450.173C79.7966 446.363 79.8367 442.31 79.7746 438.509C83.383 438.516 87.1699 438.952 89.9752 436.189C94.7913 431.447 91.8518 423.335 85.1436 422.649C84.0056 422.533 82.8425 422.553 81.6955 422.547L77.1109 422.55C76.9514 422.551 76.7918 422.553 76.6324 422.556C76.729 430.038 76.65 437.686 76.6483 445.18L76.6451 451.148C76.6449 451.407 76.6279 453.254 76.6584 453.421C76.7494 454.601 76.6784 456.718 76.6805 457.979C75.1695 458.01 73.5453 457.977 72.0253 457.974L72.0241 431.934C72.024 427.339 71.9609 422.584 72.0392 418Z" fill="#FE5A00"/>
<path d="M91.7637 442.214C92.5783 441.671 93.3747 441.143 94.076 440.45C94.4246 440.106 94.8234 439.512 95.178 439.218C96.7101 441.093 97.1327 444.533 96.8879 446.859C96.5567 450.009 94.8326 453.236 92.2988 455.179C88.8695 457.963 85.6963 458.04 81.4708 457.992C79.9016 457.973 78.2455 458.028 76.6805 457.979C76.6784 456.718 76.7494 454.601 76.6584 453.421L81.3659 453.429C84.5594 453.433 87.2324 453.643 89.798 451.29C92.4606 448.848 92.8568 445.565 91.7637 442.214Z" fill="#1E1E1E"/>
</g>
</g>

<g class="anim-3">
<g filter="url(#filter2_d_2312_208)">
<rect x="259" y="7" width="58" height="58" rx="8" fill="white"/>
<rect x="260" y="8" width="56" height="56" rx="7" stroke="#E9F2F7" stroke-width="2"/>
<path d="M295.194 27H292.839C292.645 27 292.5 27.0662 292.419 27.1986L283.21 39.1315C283.048 39.3301 282.806 39.4129 282.581 39.3301C282.339 39.2474 282.177 38.9991 282.177 38.7343V27.7779C282.177 27.5627 282.113 27.3641 281.968 27.2152C281.839 27.0662 281.677 27 281.516 27H279.145C278.952 27 278.806 27.0662 278.726 27.1986L268.323 40.4059C268.161 40.6211 268.065 40.9024 268.048 41.1838L268 45.3545C268 45.6028 268.097 45.8014 268.274 45.8676C268.419 45.9172 268.565 45.8841 268.677 45.7352L277.839 33.9016C278 33.703 278.242 33.6202 278.468 33.703C278.71 33.7857 278.871 34.034 278.871 34.2988V45.189C278.871 45.3876 278.919 45.5862 279.016 45.7186C279.145 45.9007 279.306 46 279.5 46H281.871C282.113 46 282.21 45.9007 282.339 45.7517L291.532 33.8685C291.677 33.6699 291.935 33.5871 292.161 33.6699C292.403 33.7526 292.565 34.0009 292.565 34.2657V45.1559C292.565 45.4042 292.645 45.6359 292.774 45.7848C292.903 45.9172 293.048 45.9834 293.226 45.9834H295.145C295.306 45.9834 295.468 45.9172 295.581 45.8179C295.758 45.669 295.839 45.4538 295.839 45.189V27.7779C295.839 27.5627 295.774 27.3641 295.629 27.2152C295.532 27.0662 295.371 27 295.194 27Z" fill="#1526FF"/>
<path d="M307.5 35.2753C307.79 35.2753 308 35.5401 308 35.8876V37.0958C308 37.4103 307.79 37.6916 307.5 37.6916H304.129C304 37.6916 303.935 37.7578 303.952 37.9068V40.6873C303.952 41.0348 303.742 41.2997 303.452 41.2997H302.177C301.887 41.2997 301.677 41.0348 301.677 40.6873V37.9068C301.677 37.7578 301.613 37.6916 301.5 37.6916H298.129C297.839 37.6916 297.629 37.4103 297.629 37.0958V35.8876C297.629 35.5401 297.839 35.2753 298.129 35.2753H301.5C301.629 35.2753 301.694 35.1925 301.677 35.0601V32.2962C301.677 31.9486 301.887 31.7003 302.177 31.7003H303.452C303.742 31.7003 303.952 31.9486 303.952 32.2962V35.0601C303.952 35.2091 304.016 35.2753 304.129 35.2753H307.5Z" fill="#1526FF"/>
</g>
</g>

<g class="anim-4">
<g filter="url(#filter3_d_2312_208)">
<rect x="451" y="88" width="58" height="58" rx="8" fill="white"/>
<rect x="452" y="89" width="56" height="56" rx="7" stroke="#E9F2F7" stroke-width="2"/>
<path d="M479.058 106.731C480.167 106.499 482.503 106.891 483.595 107.233C486.636 108.186 489.174 110.309 490.649 113.133C492.115 115.954 492.401 119.241 491.443 122.272C490.474 125.315 488.332 127.847 485.489 129.308C482.961 130.601 480.055 130.958 477.289 130.314C476.62 130.155 475.981 129.954 475.356 129.677C475.23 129.62 475.215 129.641 475.127 129.689L475.116 129.879L475.114 136.999L468.038 137C467.981 132.99 468.036 128.845 468.034 124.824L468.032 120.631C468.031 119.079 467.974 117.717 468.296 116.181C468.693 114.31 469.533 112.561 470.745 111.081C472.881 108.463 475.727 107.063 479.058 106.731ZM480.597 123.521C483.281 123.203 485.201 120.773 484.889 118.09C484.576 115.407 482.149 113.483 479.463 113.79C476.769 114.097 474.837 116.532 475.15 119.223C475.464 121.914 477.904 123.84 480.597 123.521Z" fill="#424242"/>
<path d="M468.015 97C470.336 97.0487 472.797 97.0072 475.129 97.0069C475.091 99.3474 475.12 101.763 475.119 104.11C472.819 104.067 470.326 104.091 468.025 104.112C467.968 101.826 468.028 99.3077 468.015 97Z" fill="#00C5FE"/>
</g>
</g>

<g class="anim-5">
<g filter="url(#filter4_d_2312_208)">
<rect x="451" y="409" width="58" height="58" rx="8" fill="white"/>
<rect x="452" y="410" width="56" height="56" rx="7" stroke="#E9F2F7" stroke-width="2"/>
<path d="M470.004 428.306C472.182 428.332 474.395 428.283 476.556 428.309C479.7 428.347 482.416 427.955 485.26 429.581C487.984 431.137 489.473 433.216 490.325 436.136C493.455 436.083 496.699 436.141 499.846 436.123C499.954 436.611 499.993 437.655 499.998 438.155C500.079 443.411 498.018 448.478 494.28 452.217C491.166 455.328 487.082 457.312 482.688 457.848C481.571 457.984 480.549 457.988 479.43 457.998C479.348 456.638 479.407 454.692 479.405 453.288C487.293 453.482 493.508 448.495 495.036 440.864C493.48 440.827 491.852 440.854 490.291 440.858C490.172 441.411 490.044 441.755 489.846 442.285C489.258 443.611 488.699 444.512 487.69 445.552C483.905 449.451 479.751 448.592 474.806 448.678L474.804 457.985C471.748 458.027 468.657 457.963 465.588 458C465.553 456.478 465.582 454.821 465.582 453.289L470.011 453.293C469.92 450.411 470.004 446.901 470.005 443.976L479.438 443.985C481.376 443.976 482.777 443.709 484.2 442.283C485.24 441.263 485.823 439.872 485.818 438.424C485.799 436.382 484.567 434.557 482.761 433.623C481.326 432.88 479.808 432.992 478.247 432.995L474.803 433.013L474.806 439.684C473.256 439.629 471.564 439.656 470.01 439.675C469.908 436.058 470.004 431.962 470.004 428.306Z" fill="#00E6B3"/>
<path d="M479.408 419.002C480.163 418.996 481.081 419 481.839 419.054C486.926 419.417 491.737 421.847 495.084 425.628C496.425 427.144 497.531 428.85 498.364 430.689C498.459 430.904 498.673 431.329 498.659 431.547C496.924 431.527 495.189 431.526 493.454 431.544C492.488 429.896 491.616 428.732 490.167 427.447C487.225 424.85 483.364 423.506 479.424 423.708C479.352 422.358 479.409 420.398 479.408 419.002Z" fill="#00E6B3"/>
<path d="M460.3 448.005L464.987 447.987L464.981 453.016L464.871 453.054L460.007 453.059C460.007 452.61 459.974 448.151 460.05 448.042L460.3 448.005Z" fill="#111938"/>
</g>
</g>

<g class="anim-6">
<g filter="url(#filter5_d_2312_208)">
<rect x="505" y="246" width="58" height="58" rx="8" fill="white"/>
<rect x="506" y="247" width="56" height="56" rx="7" stroke="#E9F2F7" stroke-width="2"/>
<path d="M528.154 278.211C527.525 278.751 526.796 279.022 525.967 279.022C524.902 279.022 524.04 278.651 523.378 277.91C522.715 277.168 522.384 276.198 522.384 274.999C522.384 273.794 522.714 272.819 523.371 272.078C524.028 271.337 524.894 270.965 525.967 270.965C526.746 270.965 527.451 271.211 528.078 271.701C528.707 272.191 529.151 272.838 529.411 273.643H535.532C535.213 271.204 534.174 269.233 532.415 267.729C530.655 266.224 528.497 265.473 525.942 265.473C524.048 265.473 522.343 265.881 520.826 266.699C519.31 267.515 518.126 268.651 517.275 270.104C516.425 271.558 516 273.19 516 274.999C516 276.81 516.425 278.441 517.275 279.895C518.126 281.349 519.31 282.484 520.826 283.301C522.343 284.119 524.048 284.526 525.942 284.526C528.539 284.526 530.726 283.747 532.502 282.19C534.279 280.63 535.309 278.594 535.595 276.08H529.386C529.193 276.961 528.782 277.671 528.154 278.211Z" fill="black"/>
<path d="M550.19 273.257C548.983 272.121 547.427 271.554 545.52 271.554C545.324 271.554 545.058 271.564 544.722 271.581L548.098 266.082L542.068 266.083L539.213 270.743C538.406 272.064 537.81 273.281 537.424 274.395C537.038 275.508 536.844 276.615 536.844 277.714C536.844 279.728 537.547 281.367 538.953 282.631C540.359 283.895 542.184 284.527 544.428 284.527C546.699 284.527 548.529 283.897 549.917 282.638C551.305 281.378 552 279.719 552 277.662C552 275.861 551.397 274.393 550.19 273.257ZM546.118 279.35C545.683 279.786 545.121 280.003 544.428 280.003C543.737 280.003 543.174 279.786 542.74 279.35C542.305 278.916 542.087 278.353 542.087 277.662C542.087 276.969 542.305 276.402 542.74 275.958C543.174 275.515 543.737 275.293 544.428 275.293C545.121 275.293 545.683 275.515 546.118 275.958C546.552 276.402 546.77 276.969 546.77 277.662C546.77 278.353 546.552 278.916 546.118 279.35Z" fill="black"/>
</g>
</g>

<g class="anim-7">
<g filter="url(#filter6_d_2312_208)">
<rect x="13" y="246" width="58" height="58" rx="8" fill="white"/>
<rect x="14" y="247" width="56" height="56" rx="7" stroke="#E9F2F7" stroke-width="2"/>
<path d="M28.7875 279.537C30.4349 279.446 32.207 279.995 33.4742 281.092C34.1542 281.681 33.482 282.458 32.8 282.337C32.6619 282.313 32.1184 281.813 31.9575 281.689C31.6505 281.457 31.313 281.27 30.9549 281.131C29.7135 280.645 28.0221 280.735 26.8099 281.276C22.3177 283.281 22.4382 290.614 27.0994 292.379C28.523 292.912 30.0977 292.856 31.4806 292.224C32.1116 291.886 32.4064 291.49 32.9292 291.063C33.5595 290.641 34.4735 291.32 33.7951 292.057C31.5894 294.615 26.798 294.604 24.3965 292.277C19.7558 287.78 22.1953 280.021 28.7875 279.537ZM45.8527 283.722C48.1947 283.734 49.9599 285.211 50.2974 287.574C50.3738 288.108 50.3613 288.622 50.3579 289.159C47.9284 289.262 45.2177 289.066 42.8343 289.199C42.6401 289.37 42.5915 289.445 42.4411 289.66C42.5987 290.257 42.73 290.686 43.0828 291.203C43.5909 291.941 44.3683 292.446 45.2451 292.607C46.269 292.791 47.1891 292.595 48.0375 291.996C48.2356 291.825 48.7447 291.313 48.9677 291.269C49.3831 291.188 50.082 291.742 49.6662 292.225C48.102 294.122 44.8663 294.481 42.9242 292.932C39.4544 290.164 40.7002 284.361 45.271 283.745C45.4643 283.727 45.6585 283.72 45.8527 283.722ZM60.7231 279.472C61.3687 279.452 61.6456 279.523 61.6566 280.25C61.6682 281 61.6614 281.751 61.66 282.501L61.6562 286.692L61.6605 290.79C61.661 291.493 61.6677 292.21 61.6518 292.913C61.6389 293.124 61.636 293.279 61.4918 293.44C61.2581 293.713 60.6793 293.688 60.4409 293.441C60.1742 293.165 60.2515 292.38 60.2558 292.002C59.2661 293.074 58.7502 293.609 57.2081 293.848C55.8727 294.055 54.5531 293.657 53.4778 292.848C53.2139 292.636 52.9725 292.397 52.7582 292.134C51.8294 290.991 51.5501 289.626 51.6713 288.183C51.9578 284.758 55.5574 282.723 58.6137 284.214C59.3055 284.552 59.7948 285.086 60.2655 285.682C60.1905 283.808 60.2655 281.78 60.2967 279.902C60.3001 279.726 60.5914 279.55 60.7231 279.472ZM39.4578 283.742C40.6707 283.661 41.0437 283.752 40.6007 285.082L40.5597 285.08C39.5748 285.035 38.691 284.98 37.9038 285.735C36.6947 286.894 36.8737 288.836 36.8651 290.366C36.8596 291.352 36.8846 292.309 36.8499 293.289C36.419 293.734 36.0166 293.792 35.5504 293.357C35.416 292.919 35.466 290.538 35.4662 289.956L35.4605 285.201C35.4632 284.6 35.353 283.94 36.1801 283.983C36.343 283.989 36.4962 284.063 36.6044 284.186C36.9167 284.543 36.8476 285.218 36.8103 285.673C36.8468 285.611 36.8848 285.55 36.9242 285.49C37.6225 284.427 38.24 283.994 39.4578 283.742ZM60.4861 288.203C60.1577 286.126 58.219 284.711 56.1568 285.043C54.0979 285.375 52.6947 287.325 53.0225 289.4C53.3504 291.474 55.2843 292.889 57.3442 292.561C59.4069 292.233 60.8139 290.281 60.4861 288.203ZM47.8429 285.583C47.0954 285.016 46.3627 284.852 45.4801 284.938C45.4229 284.943 45.3662 284.95 45.3095 284.957C44.187 285.167 43.6659 285.621 42.966 286.507C41.2734 288.65 44.8403 288.065 46.1522 288.073C46.6627 288.078 48.3784 288.191 48.6937 287.895C49.1931 287.426 48.2654 285.903 47.8429 285.583ZM50.8415 257.07C51.8092 257.03 52.8346 257.059 53.8051 257.049C53.9532 257.047 54.393 257.078 54.4757 257.183C54.5676 257.3 54.5964 257.849 54.5969 258.009C54.6012 259.487 54.6002 260.968 54.6002 262.446L54.5983 275.594C54.5983 276.245 54.6079 276.949 54.5839 277.601C54.5772 277.789 54.4493 277.885 54.3123 277.994C53.7459 278.025 51.0165 278.117 50.6728 277.83C50.4834 277.221 50.5776 273.305 50.5776 272.414L50.5781 259.238C50.5786 258.641 50.568 257.964 50.6065 257.365C50.6161 257.213 50.7368 257.141 50.8415 257.07ZM43.7683 263.319C44.3183 263.27 47.1934 263.196 47.5559 263.406C47.7241 263.858 47.6717 265.158 47.6722 265.693L47.6727 274.606C47.6727 275.552 47.6837 276.515 47.6544 277.461C47.6486 277.657 47.6121 277.756 47.5097 277.92C47.4847 277.927 47.4592 277.933 47.4338 277.94C47.0189 278.042 44.1065 278.087 43.7616 277.879C43.7433 277.821 43.7289 277.762 43.7183 277.702C43.64 277.267 43.6616 276.31 43.6616 275.835L43.6602 267.011C43.6602 266.52 43.601 263.568 43.7683 263.319ZM57.7047 263.31C58.2916 263.281 61.13 263.176 61.4836 263.424C61.6259 264.172 61.5735 266.03 61.574 266.856L61.5735 276.126C61.574 276.596 61.6994 277.701 61.3298 277.96C61.1129 278 60.4721 278.031 60.2453 278.009C59.7232 277.96 57.9426 278.163 57.6335 277.804C57.5019 277.133 57.5432 276.103 57.5427 275.394L57.5413 266.665C57.5417 266.102 57.4552 263.707 57.7047 263.31ZM28.3863 268.434C29.1664 268.384 30.3917 269.961 30.9373 270.532C31.8554 271.493 29.9805 272.754 30.1274 273.515C30.356 273.852 31.3327 273.735 31.7478 273.733L35.0382 273.725C35.6822 273.723 37.2917 273.64 37.7838 273.995C38.9061 274.803 40.0427 276.231 41.1042 277.186C41.2965 277.359 41.4618 277.62 41.3292 277.854C41.1013 277.995 37.0831 277.937 36.4898 277.936L26.8044 277.936L24.2778 277.941C23.7465 277.943 23.1893 277.966 22.6621 277.898C22.4952 277.876 22.3456 277.721 22.386 277.545C22.4267 277.368 22.5034 277.216 22.5975 277.062C23.5397 275.62 24.4888 274.182 25.4277 272.737L27.1424 270.109C27.4224 269.681 27.995 268.687 28.3863 268.434ZM23.2056 257.059C23.9307 257.016 24.8622 257.038 25.6041 257.038L29.7808 257.037C32.9905 257.037 36.2005 257.032 39.41 257.043C39.5599 257.015 40.2659 257.071 40.2138 257.351C40.0967 257.98 38.8993 259.647 38.6133 260.088L35.7936 264.434C35.2043 265.267 34.6823 266.384 33.9435 267.082C33.5054 267.495 32.947 266.773 32.6489 266.458C32.1566 265.937 31.5026 265.398 31.0906 264.802C30.9978 263.615 31.8924 263.081 32.4086 262.084C33.0074 260.928 31.6976 261.285 31.0857 261.24C30.0004 261.161 27.8645 261.47 26.9031 261.07C26.6668 260.97 26.4469 260.834 26.2511 260.667C25.9014 260.369 23.1609 257.587 23.0582 257.344C23.0761 257.171 23.0788 257.214 23.2056 257.059ZM45.2268 257.036C46.5675 256.809 47.8361 257.723 48.0548 259.075C48.2731 260.427 47.3583 261.7 46.0152 261.913C44.6822 262.124 43.4304 261.211 43.2131 259.87C42.9963 258.528 43.8962 257.262 45.2268 257.036ZM59.0699 257.048C60.3928 256.783 61.6797 257.644 61.9499 258.975C62.22 260.306 61.3715 261.607 60.0515 261.886C58.7219 262.168 57.4187 261.305 57.1466 259.964C56.874 258.623 57.7369 257.315 59.0699 257.048Z" fill="black"/>
</g>
</g>

<g class="anim-8">
<g filter="url(#filter7_d_2312_208)">
<rect x="259" y="492" width="58" height="58" rx="8" fill="white"/>
<rect x="260" y="493" width="56" height="56" rx="7" stroke="#E9F2F7" stroke-width="2"/>
<path d="M299.782 503H300.902C301.091 503.048 301.288 503.053 301.481 503.079C301.781 503.121 302.079 503.181 302.372 503.259C304.238 503.767 305.841 504.95 306.865 506.573C307.351 507.348 307.69 508.205 307.865 509.101C307.9 509.282 307.972 509.915 308 510.011V511.137L307.996 511.158C307.909 511.618 307.912 511.894 307.783 512.394C307.329 514.185 306.228 515.751 304.688 516.798C303.013 517.941 300.945 518.376 298.944 518.006C298.268 517.883 297.612 517.669 296.994 517.37C296.668 517.212 296.363 517.016 296.021 516.889C294.607 516.366 293.232 516.46 291.985 517.326C290.608 518.281 290.119 519.525 290.321 521.153C290.513 522.709 291.347 523.872 292.118 525.194L293.856 528.169C294.222 528.796 294.726 529.594 295.009 530.238C295.729 531.902 295.768 533.777 295.117 535.468C294.618 536.792 293.72 537.934 292.545 538.739C291.735 539.292 290.818 539.675 289.853 539.864C289.598 539.914 289.166 539.949 288.968 540H287.992C287.834 539.955 287.312 539.898 287.099 539.857C286.29 539.694 285.515 539.395 284.808 538.972C283.997 538.49 283.294 537.848 282.744 537.087C282.411 536.625 282.091 536.043 281.799 535.543L269.596 514.659C269.274 514.108 268.93 513.552 268.651 512.979C268.391 512.442 268.219 511.867 268.1 511.285C268.055 511.06 268.061 510.818 268 510.594V509.516C268.031 509.405 268.083 508.905 268.118 508.722C268.269 507.946 268.551 507.2 268.953 506.516C269.901 504.9 271.465 503.728 273.295 503.262C274.542 502.945 275.852 502.967 277.088 503.326C278.647 503.78 280.001 504.75 280.922 506.074C281.202 506.472 281.486 506.997 281.735 507.424L283.002 509.59C283.245 510.007 283.49 510.458 283.748 510.863C284.424 511.923 285.221 512.784 286.311 513.441C287.747 514.306 289.661 514.31 291.112 513.477C291.975 512.982 292.496 511.718 292.625 510.782C292.699 510.241 292.71 509.698 292.815 509.142C292.974 508.313 293.274 507.517 293.701 506.787C294.695 505.071 296.332 503.81 298.258 503.276C298.543 503.198 298.836 503.134 299.128 503.088C299.34 503.055 299.577 503.053 299.782 503Z" fill="#8444FF"/>
<path d="M297.051 519.43C299.202 519.268 301.078 520.861 301.24 522.986C301.403 525.112 299.79 526.965 297.639 527.124C295.49 527.283 293.617 525.691 293.454 523.568C293.292 521.444 294.902 519.592 297.051 519.43Z" fill="#8444FF"/>
</g>
</g>

<circle cx="288" cy="275" r="192" fill="#E9F2F7"/>
<circle opacity="0.3" cx="288" cy="275" r="141" fill="white"/>
<circle opacity="0.5" cx="288" cy="275" r="93" fill="white"/>

<g class="anim-center">
<g filter="url(#filter8_d_2312_208)">
<rect x="124" y="253" width="328.665" height="51.7765" rx="11.8883" fill="white"/>
<circle cx="147.889" cy="278.888" r="12" fill="#FFA333" fill-opacity="0.5"/>
<circle cx="147.889" cy="278.888" r="4.8" fill="#FFA333"/>
<path d="M175.136 273.428V278.088H180.216V279.588H175.136V284.388H180.816V285.888H173.316V271.928H180.816V273.428H175.136ZM187.45 286.068C186.61 286.068 185.857 285.928 185.19 285.648C184.524 285.355 183.997 284.955 183.61 284.448C183.224 283.928 183.01 283.335 182.97 282.668H184.85C184.904 283.215 185.157 283.662 185.61 284.008C186.077 284.355 186.684 284.528 187.43 284.528C188.124 284.528 188.67 284.375 189.07 284.068C189.47 283.762 189.67 283.375 189.67 282.908C189.67 282.428 189.457 282.075 189.03 281.848C188.604 281.608 187.944 281.375 187.05 281.148C186.237 280.935 185.57 280.722 185.05 280.508C184.544 280.282 184.104 279.955 183.73 279.528C183.37 279.088 183.19 278.515 183.19 277.808C183.19 277.248 183.357 276.735 183.69 276.268C184.024 275.802 184.497 275.435 185.11 275.168C185.724 274.888 186.424 274.748 187.21 274.748C188.424 274.748 189.404 275.055 190.15 275.668C190.897 276.282 191.297 277.122 191.35 278.188H189.53C189.49 277.615 189.257 277.155 188.83 276.808C188.417 276.462 187.857 276.288 187.15 276.288C186.497 276.288 185.977 276.428 185.59 276.708C185.204 276.988 185.01 277.355 185.01 277.808C185.01 278.168 185.124 278.468 185.35 278.708C185.59 278.935 185.884 279.122 186.23 279.268C186.59 279.402 187.084 279.555 187.71 279.728C188.497 279.942 189.137 280.155 189.63 280.368C190.124 280.568 190.544 280.875 190.89 281.288C191.25 281.702 191.437 282.242 191.45 282.908C191.45 283.508 191.284 284.048 190.95 284.528C190.617 285.008 190.144 285.388 189.53 285.668C188.93 285.935 188.237 286.068 187.45 286.068ZM193.339 280.388C193.339 279.255 193.566 278.268 194.019 277.428C194.473 276.575 195.099 275.915 195.899 275.448C196.713 274.982 197.639 274.748 198.679 274.748C200.026 274.748 201.133 275.075 201.999 275.728C202.879 276.382 203.459 277.288 203.739 278.448H201.779C201.593 277.782 201.226 277.255 200.679 276.868C200.146 276.482 199.479 276.288 198.679 276.288C197.639 276.288 196.799 276.648 196.159 277.368C195.519 278.075 195.199 279.082 195.199 280.388C195.199 281.708 195.519 282.728 196.159 283.448C196.799 284.168 197.639 284.528 198.679 284.528C199.479 284.528 200.146 284.342 200.679 283.968C201.213 283.595 201.579 283.062 201.779 282.368H203.739C203.446 283.488 202.859 284.388 201.979 285.068C201.099 285.735 199.999 286.068 198.679 286.068C197.639 286.068 196.713 285.835 195.899 285.368C195.099 284.902 194.473 284.242 194.019 283.388C193.566 282.535 193.339 281.535 193.339 280.388ZM210.948 286.068C209.921 286.068 208.988 285.835 208.148 285.368C207.321 284.902 206.668 284.242 206.188 283.388C205.721 282.522 205.488 281.522 205.488 280.388C205.488 279.268 205.728 278.282 206.208 277.428C206.701 276.562 207.368 275.902 208.208 275.448C209.048 274.982 209.988 274.748 211.028 274.748C212.068 274.748 213.008 274.982 213.848 275.448C214.688 275.902 215.348 276.555 215.828 277.408C216.321 278.262 216.568 279.255 216.568 280.388C216.568 281.522 216.315 282.522 215.808 283.388C215.315 284.242 214.641 284.902 213.788 285.368C212.935 285.835 211.988 286.068 210.948 286.068ZM210.948 284.468C211.601 284.468 212.215 284.315 212.788 284.008C213.361 283.702 213.821 283.242 214.168 282.628C214.528 282.015 214.708 281.268 214.708 280.388C214.708 279.508 214.535 278.762 214.188 278.148C213.841 277.535 213.388 277.082 212.828 276.788C212.268 276.482 211.661 276.328 211.008 276.328C210.341 276.328 209.728 276.482 209.168 276.788C208.621 277.082 208.181 277.535 207.848 278.148C207.515 278.762 207.348 279.508 207.348 280.388C207.348 281.282 207.508 282.035 207.828 282.648C208.161 283.262 208.601 283.722 209.148 284.028C209.695 284.322 210.295 284.468 210.948 284.468ZM220.781 271.088V285.888H218.961V271.088H220.781ZM229.323 274.728C230.149 274.728 230.896 274.908 231.563 275.268C232.229 275.615 232.749 276.142 233.123 276.848C233.509 277.555 233.703 278.415 233.703 279.428V285.888H231.903V279.688C231.903 278.595 231.629 277.762 231.083 277.188C230.536 276.602 229.789 276.308 228.843 276.308C227.883 276.308 227.116 276.608 226.543 277.208C225.983 277.808 225.703 278.682 225.703 279.828V285.888H223.883V271.088H225.703V276.488C226.063 275.928 226.556 275.495 227.183 275.188C227.823 274.882 228.536 274.728 229.323 274.728ZM235.996 280.368C235.996 279.248 236.222 278.268 236.676 277.428C237.129 276.575 237.749 275.915 238.536 275.448C239.336 274.982 240.222 274.748 241.196 274.748C242.156 274.748 242.989 274.955 243.696 275.368C244.402 275.782 244.929 276.302 245.276 276.928V274.928H247.116V285.888H245.276V283.848C244.916 284.488 244.376 285.022 243.656 285.448C242.949 285.862 242.122 286.068 241.176 286.068C240.202 286.068 239.322 285.828 238.536 285.348C237.749 284.868 237.129 284.195 236.676 283.328C236.222 282.462 235.996 281.475 235.996 280.368ZM245.276 280.388C245.276 279.562 245.109 278.842 244.776 278.228C244.442 277.615 243.989 277.148 243.416 276.828C242.856 276.495 242.236 276.328 241.556 276.328C240.876 276.328 240.256 276.488 239.696 276.808C239.136 277.128 238.689 277.595 238.356 278.208C238.022 278.822 237.856 279.542 237.856 280.368C237.856 281.208 238.022 281.942 238.356 282.568C238.689 283.182 239.136 283.655 239.696 283.988C240.256 284.308 240.876 284.468 241.556 284.468C242.236 284.468 242.856 284.308 243.416 283.988C243.989 283.655 244.442 283.182 244.776 282.568C245.109 281.942 245.276 281.215 245.276 280.388ZM254.843 280.368C254.843 279.248 255.07 278.268 255.523 277.428C255.977 276.575 256.597 275.915 257.383 275.448C258.183 274.982 259.07 274.748 260.043 274.748C261.003 274.748 261.837 274.955 262.543 275.368C263.25 275.782 263.777 276.302 264.123 276.928V274.928H265.963V285.888H264.123V283.848C263.763 284.488 263.223 285.022 262.503 285.448C261.797 285.862 260.97 286.068 260.023 286.068C259.05 286.068 258.17 285.828 257.383 285.348C256.597 284.868 255.977 284.195 255.523 283.328C255.07 282.462 254.843 281.475 254.843 280.368ZM264.123 280.388C264.123 279.562 263.957 278.842 263.623 278.228C263.29 277.615 262.837 277.148 262.263 276.828C261.703 276.495 261.083 276.328 260.403 276.328C259.723 276.328 259.103 276.488 258.543 276.808C257.983 277.128 257.537 277.595 257.203 278.208C256.87 278.822 256.703 279.542 256.703 280.368C256.703 281.208 256.87 281.942 257.203 282.568C257.537 283.182 257.983 283.655 258.543 283.988C259.103 284.308 259.723 284.468 260.403 284.468C261.083 284.468 261.703 284.308 262.263 283.988C262.837 283.655 263.29 283.182 263.623 282.568C263.957 281.942 264.123 281.215 264.123 280.388ZM287.551 274.728C288.404 274.728 289.164 274.908 289.831 275.268C290.498 275.615 291.024 276.142 291.411 276.848C291.798 277.555 291.991 278.415 291.991 279.428V285.888H290.191V279.688C290.191 278.595 289.918 277.762 289.371 277.188C288.838 276.602 288.111 276.308 287.191 276.308C286.244 276.308 285.491 276.615 284.931 277.228C284.371 277.828 284.091 278.702 284.091 279.848V285.888H282.291V279.688C282.291 278.595 282.018 277.762 281.471 277.188C280.938 276.602 280.211 276.308 279.291 276.308C278.344 276.308 277.591 276.615 277.031 277.228C276.471 277.828 276.191 278.702 276.191 279.848V285.888H274.371V274.928H276.191V276.508C276.551 275.935 277.031 275.495 277.631 275.188C278.244 274.882 278.918 274.728 279.651 274.728C280.571 274.728 281.384 274.935 282.091 275.348C282.798 275.762 283.324 276.368 283.671 277.168C283.978 276.395 284.484 275.795 285.191 275.368C285.898 274.942 286.684 274.728 287.551 274.728ZM304.977 279.988C304.977 280.335 304.957 280.702 304.917 281.088H296.157C296.223 282.168 296.59 283.015 297.257 283.628C297.937 284.228 298.757 284.528 299.717 284.528C300.503 284.528 301.157 284.348 301.677 283.988C302.21 283.615 302.583 283.122 302.797 282.508H304.757C304.463 283.562 303.877 284.422 302.997 285.088C302.117 285.742 301.023 286.068 299.717 286.068C298.677 286.068 297.743 285.835 296.917 285.368C296.103 284.902 295.463 284.242 294.997 283.388C294.53 282.522 294.297 281.522 294.297 280.388C294.297 279.255 294.523 278.262 294.977 277.408C295.43 276.555 296.063 275.902 296.877 275.448C297.703 274.982 298.65 274.748 299.717 274.748C300.757 274.748 301.677 274.975 302.477 275.428C303.277 275.882 303.89 276.508 304.317 277.308C304.757 278.095 304.977 278.988 304.977 279.988ZM303.097 279.608C303.097 278.915 302.943 278.322 302.637 277.828C302.33 277.322 301.91 276.942 301.377 276.688C300.857 276.422 300.277 276.288 299.637 276.288C298.717 276.288 297.93 276.582 297.277 277.168C296.637 277.755 296.27 278.568 296.177 279.608H303.097ZM309.199 271.088V285.888H307.379V271.088H309.199ZM317.741 274.728C318.567 274.728 319.314 274.908 319.981 275.268C320.647 275.615 321.167 276.142 321.541 276.848C321.927 277.555 322.121 278.415 322.121 279.428V285.888H320.321V279.688C320.321 278.595 320.047 277.762 319.501 277.188C318.954 276.602 318.207 276.308 317.261 276.308C316.301 276.308 315.534 276.608 314.961 277.208C314.401 277.808 314.121 278.682 314.121 279.828V285.888H312.301V271.088H314.121V276.488C314.481 275.928 314.974 275.495 315.601 275.188C316.241 274.882 316.954 274.728 317.741 274.728ZM329.874 286.068C328.847 286.068 327.914 285.835 327.074 285.368C326.247 284.902 325.594 284.242 325.114 283.388C324.647 282.522 324.414 281.522 324.414 280.388C324.414 279.268 324.654 278.282 325.134 277.428C325.627 276.562 326.294 275.902 327.134 275.448C327.974 274.982 328.914 274.748 329.954 274.748C330.994 274.748 331.934 274.982 332.774 275.448C333.614 275.902 334.274 276.555 334.754 277.408C335.247 278.262 335.494 279.255 335.494 280.388C335.494 281.522 335.24 282.522 334.734 283.388C334.24 284.242 333.567 284.902 332.714 285.368C331.86 285.835 330.914 286.068 329.874 286.068ZM329.874 284.468C330.527 284.468 331.14 284.315 331.714 284.008C332.287 283.702 332.747 283.242 333.094 282.628C333.454 282.015 333.634 281.268 333.634 280.388C333.634 279.508 333.46 278.762 333.114 278.148C332.767 277.535 332.314 277.082 331.754 276.788C331.194 276.482 330.587 276.328 329.934 276.328C329.267 276.328 328.654 276.482 328.094 276.788C327.547 277.082 327.107 277.535 326.774 278.148C326.44 278.762 326.274 279.508 326.274 280.388C326.274 281.282 326.434 282.035 326.754 282.648C327.087 283.262 327.527 283.722 328.074 284.028C328.62 284.322 329.22 284.468 329.874 284.468ZM339.707 276.708C340.027 276.082 340.48 275.595 341.067 275.248C341.667 274.902 342.393 274.728 343.247 274.728V276.608H342.767C340.727 276.608 339.707 277.715 339.707 279.928V285.888H337.887V274.928H339.707V276.708ZM352.5 276.948C352.86 276.322 353.393 275.802 354.1 275.388C354.82 274.962 355.653 274.748 356.6 274.748C357.573 274.748 358.453 274.982 359.24 275.448C360.04 275.915 360.666 276.575 361.12 277.428C361.573 278.268 361.8 279.248 361.8 280.368C361.8 281.475 361.573 282.462 361.12 283.328C360.666 284.195 360.04 284.868 359.24 285.348C358.453 285.828 357.573 286.068 356.6 286.068C355.666 286.068 354.84 285.862 354.12 285.448C353.413 285.022 352.873 284.495 352.5 283.868V291.088H350.68V274.928H352.5V276.948ZM359.94 280.368C359.94 279.542 359.773 278.822 359.44 278.208C359.106 277.595 358.653 277.128 358.08 276.808C357.52 276.488 356.9 276.328 356.22 276.328C355.553 276.328 354.933 276.495 354.36 276.828C353.8 277.148 353.346 277.622 353 278.248C352.666 278.862 352.5 279.575 352.5 280.388C352.5 281.215 352.666 281.942 353 282.568C353.346 283.182 353.8 283.655 354.36 283.988C354.933 284.308 355.553 284.468 356.22 284.468C356.9 284.468 357.52 284.308 358.08 283.988C358.653 283.655 359.106 283.182 359.44 282.568C359.773 281.942 359.94 281.208 359.94 280.368ZM366.015 276.708C366.335 276.082 366.789 275.595 367.375 275.248C367.975 274.902 368.702 274.728 369.555 274.728V276.608H369.075C367.035 276.608 366.015 277.715 366.015 279.928V285.888H364.195V274.928H366.015V276.708ZM376.436 286.068C375.41 286.068 374.476 285.835 373.636 285.368C372.81 284.902 372.156 284.242 371.676 283.388C371.21 282.522 370.976 281.522 370.976 280.388C370.976 279.268 371.216 278.282 371.696 277.428C372.19 276.562 372.856 275.902 373.696 275.448C374.536 274.982 375.476 274.748 376.516 274.748C377.556 274.748 378.496 274.982 379.336 275.448C380.176 275.902 380.836 276.555 381.316 277.408C381.81 278.262 382.056 279.255 382.056 280.388C382.056 281.522 381.803 282.522 381.296 283.388C380.803 284.242 380.13 284.902 379.276 285.368C378.423 285.835 377.476 286.068 376.436 286.068ZM376.436 284.468C377.09 284.468 377.703 284.315 378.276 284.008C378.85 283.702 379.31 283.242 379.656 282.628C380.016 282.015 380.196 281.268 380.196 280.388C380.196 279.508 380.023 278.762 379.676 278.148C379.33 277.535 378.876 277.082 378.316 276.788C377.756 276.482 377.15 276.328 376.496 276.328C375.83 276.328 375.216 276.482 374.656 276.788C374.11 277.082 373.67 277.535 373.336 278.148C373.003 278.762 372.836 279.508 372.836 280.388C372.836 281.282 372.996 282.035 373.316 282.648C373.65 283.262 374.09 283.722 374.636 284.028C375.183 284.322 375.783 284.468 376.436 284.468ZM386.269 276.948C386.629 276.322 387.163 275.802 387.869 275.388C388.589 274.962 389.423 274.748 390.369 274.748C391.343 274.748 392.223 274.982 393.009 275.448C393.809 275.915 394.436 276.575 394.889 277.428C395.343 278.268 395.569 279.248 395.569 280.368C395.569 281.475 395.343 282.462 394.889 283.328C394.436 284.195 393.809 284.868 393.009 285.348C392.223 285.828 391.343 286.068 390.369 286.068C389.436 286.068 388.609 285.862 387.889 285.448C387.183 285.022 386.643 284.495 386.269 283.868V291.088H384.449V274.928H386.269V276.948ZM393.709 280.368C393.709 279.542 393.543 278.822 393.209 278.208C392.876 277.595 392.423 277.128 391.849 276.808C391.289 276.488 390.669 276.328 389.989 276.328C389.323 276.328 388.703 276.495 388.129 276.828C387.569 277.148 387.116 277.622 386.769 278.248C386.436 278.862 386.269 279.575 386.269 280.388C386.269 281.215 386.436 281.942 386.769 282.568C387.116 283.182 387.569 283.655 388.129 283.988C388.703 284.308 389.323 284.468 389.989 284.468C390.669 284.468 391.289 284.308 391.849 283.988C392.423 283.655 392.876 283.182 393.209 282.568C393.543 281.942 393.709 281.208 393.709 280.368ZM402.745 286.068C401.718 286.068 400.785 285.835 399.945 285.368C399.118 284.902 398.465 284.242 397.985 283.388C397.518 282.522 397.285 281.522 397.285 280.388C397.285 279.268 397.525 278.282 398.005 277.428C398.498 276.562 399.165 275.902 400.005 275.448C400.845 274.982 401.785 274.748 402.825 274.748C403.865 274.748 404.805 274.982 405.645 275.448C406.485 275.902 407.145 276.555 407.625 277.408C408.118 278.262 408.365 279.255 408.365 280.388C408.365 281.522 408.111 282.522 407.605 283.388C407.111 284.242 406.438 284.902 405.585 285.368C404.731 285.835 403.785 286.068 402.745 286.068ZM402.745 284.468C403.398 284.468 404.011 284.315 404.585 284.008C405.158 283.702 405.618 283.242 405.965 282.628C406.325 282.015 406.505 281.268 406.505 280.388C406.505 279.508 406.331 278.762 405.985 278.148C405.638 277.535 405.185 277.082 404.625 276.788C404.065 276.482 403.458 276.328 402.805 276.328C402.138 276.328 401.525 276.482 400.965 276.788C400.418 277.082 399.978 277.535 399.645 278.148C399.311 278.762 399.145 279.508 399.145 280.388C399.145 281.282 399.305 282.035 399.625 282.648C399.958 283.262 400.398 283.722 400.945 284.028C401.491 284.322 402.091 284.468 402.745 284.468ZM414.638 286.068C413.798 286.068 413.044 285.928 412.378 285.648C411.711 285.355 411.184 284.955 410.798 284.448C410.411 283.928 410.198 283.335 410.158 282.668H412.038C412.091 283.215 412.344 283.662 412.798 284.008C413.264 284.355 413.871 284.528 414.618 284.528C415.311 284.528 415.858 284.375 416.258 284.068C416.658 283.762 416.858 283.375 416.858 282.908C416.858 282.428 416.644 282.075 416.218 281.848C415.791 281.608 415.131 281.375 414.238 281.148C413.424 280.935 412.758 280.722 412.238 280.508C411.731 280.282 411.291 279.955 410.918 279.528C410.558 279.088 410.378 278.515 410.378 277.808C410.378 277.248 410.544 276.735 410.878 276.268C411.211 275.802 411.684 275.435 412.298 275.168C412.911 274.888 413.611 274.748 414.398 274.748C415.611 274.748 416.591 275.055 417.338 275.668C418.084 276.282 418.484 277.122 418.538 278.188H416.718C416.678 277.615 416.444 277.155 416.018 276.808C415.604 276.462 415.044 276.288 414.338 276.288C413.684 276.288 413.164 276.428 412.778 276.708C412.391 276.988 412.198 277.355 412.198 277.808C412.198 278.168 412.311 278.468 412.538 278.708C412.778 278.935 413.071 279.122 413.418 279.268C413.778 279.402 414.271 279.555 414.898 279.728C415.684 279.942 416.324 280.155 416.818 280.368C417.311 280.568 417.731 280.875 418.078 281.288C418.438 281.702 418.624 282.242 418.638 282.908C418.638 283.508 418.471 284.048 418.138 284.528C417.804 285.008 417.331 285.388 416.718 285.668C416.118 285.935 415.424 286.068 414.638 286.068ZM423.427 276.428V282.888C423.427 283.422 423.54 283.802 423.767 284.028C423.994 284.242 424.387 284.348 424.947 284.348H426.287V285.888H424.647C423.634 285.888 422.874 285.655 422.367 285.188C421.86 284.722 421.607 283.955 421.607 282.888V276.428H420.187V274.928H421.607V272.168H423.427V274.928H426.287V276.428H423.427ZM427.812 280.368C427.812 279.248 428.039 278.268 428.492 277.428C428.945 276.575 429.565 275.915 430.352 275.448C431.152 274.982 432.039 274.748 433.012 274.748C433.972 274.748 434.805 274.955 435.512 275.368C436.219 275.782 436.745 276.302 437.092 276.928V274.928H438.932V285.888H437.092V283.848C436.732 284.488 436.192 285.022 435.472 285.448C434.765 285.862 433.939 286.068 432.992 286.068C432.019 286.068 431.139 285.828 430.352 285.348C429.565 284.868 428.945 284.195 428.492 283.328C428.039 282.462 427.812 281.475 427.812 280.368ZM437.092 280.388C437.092 279.562 436.925 278.842 436.592 278.228C436.259 277.615 435.805 277.148 435.232 276.828C434.672 276.495 434.052 276.328 433.372 276.328C432.692 276.328 432.072 276.488 431.512 276.808C430.952 277.128 430.505 277.595 430.172 278.208C429.839 278.822 429.672 279.542 429.672 280.368C429.672 281.208 429.839 281.942 430.172 282.568C430.505 283.182 430.952 283.655 431.512 283.988C432.072 284.308 432.692 284.468 433.372 284.468C434.052 284.468 434.672 284.308 435.232 283.988C435.805 283.655 436.259 283.182 436.592 282.568C436.925 281.942 437.092 281.215 437.092 280.388Z" fill="#303A3E"/>
</g>
</g>

<defs>
<filter id="filter0_d_2312_208" x="42" y="81" width="84" height="84" filterUnits="userSpaceOnUse" color-interpolation-filters="sRGB">
<feFlood flood-opacity="0" result="BackgroundImageFix"/>
<feColorMatrix in="SourceAlpha" type="matrix" values="0 0 0 0 0 0 0 0 0 0 0 0 0 0 0 0 0 0 127 0" result="hardAlpha"/>
<feMorphology radius="2" operator="erode" in="SourceAlpha" result="effect1_dropShadow_2312_208"/>
<feOffset dy="6"/>
<feGaussianBlur stdDeviation="7.5"/>
<feColorMatrix type="matrix" values="0 0 0 0 0.0627451 0 0 0 0 0.0941176 0 0 0 0 0.156863 0 0 0 0.08 0"/>
<feBlend mode="normal" in2="BackgroundImageFix" result="effect1_dropShadow_2312_208"/>
<feBlend mode="normal" in="SourceGraphic" in2="effect1_dropShadow_2312_208" result="shape"/>
</filter>
<filter id="filter1_d_2312_208" x="42" y="402" width="84" height="84" filterUnits="userSpaceOnUse" color-interpolation-filters="sRGB">
<feFlood flood-opacity="0" result="BackgroundImageFix"/>
<feColorMatrix in="SourceAlpha" type="matrix" values="0 0 0 0 0 0 0 0 0 0 0 0 0 0 0 0 0 0 127 0" result="hardAlpha"/>
<feMorphology radius="2" operator="erode" in="SourceAlpha" result="effect1_dropShadow_2312_208"/>
<feOffset dy="6"/>
<feGaussianBlur stdDeviation="7.5"/>
<feColorMatrix type="matrix" values="0 0 0 0 0.0627451 0 0 0 0 0.0941176 0 0 0 0 0.156863 0 0 0 0.08 0"/>
<feBlend mode="normal" in2="BackgroundImageFix" result="effect1_dropShadow_2312_208"/>
<feBlend mode="normal" in="SourceGraphic" in2="effect1_dropShadow_2312_208" result="shape"/>
</filter>
<filter id="filter2_d_2312_208" x="246" y="0" width="84" height="84" filterUnits="userSpaceOnUse" color-interpolation-filters="sRGB">
<feFlood flood-opacity="0" result="BackgroundImageFix"/>
<feColorMatrix in="SourceAlpha" type="matrix" values="0 0 0 0 0 0 0 0 0 0 0 0 0 0 0 0 0 0 127 0" result="hardAlpha"/>
<feMorphology radius="2" operator="erode" in="SourceAlpha" result="effect1_dropShadow_2312_208"/>
<feOffset dy="6"/>
<feGaussianBlur stdDeviation="7.5"/>
<feColorMatrix type="matrix" values="0 0 0 0 0.0627451 0 0 0 0 0.0941176 0 0 0 0 0.156863 0 0 0 0.08 0"/>
<feBlend mode="normal" in2="BackgroundImageFix" result="effect1_dropShadow_2312_208"/>
<feBlend mode="normal" in="SourceGraphic" in2="effect1_dropShadow_2312_208" result="shape"/>
</filter>
<filter id="filter3_d_2312_208" x="438" y="81" width="84" height="84" filterUnits="userSpaceOnUse" color-interpolation-filters="sRGB">
<feFlood flood-opacity="0" result="BackgroundImageFix"/>
<feColorMatrix in="SourceAlpha" type="matrix" values="0 0 0 0 0 0 0 0 0 0 0 0 0 0 0 0 0 0 127 0" result="hardAlpha"/>
<feMorphology radius="2" operator="erode" in="SourceAlpha" result="effect1_dropShadow_2312_208"/>
<feOffset dy="6"/>
<feGaussianBlur stdDeviation="7.5"/>
<feColorMatrix type="matrix" values="0 0 0 0 0.0627451 0 0 0 0 0.0941176 0 0 0 0 0.156863 0 0 0 0.08 0"/>
<feBlend mode="normal" in2="BackgroundImageFix" result="effect1_dropShadow_2312_208"/>
<feBlend mode="normal" in="SourceGraphic" in2="effect1_dropShadow_2312_208" result="shape"/>
</filter>
<filter id="filter4_d_2312_208" x="438" y="402" width="84" height="84" filterUnits="userSpaceOnUse" color-interpolation-filters="sRGB">
<feFlood flood-opacity="0" result="BackgroundImageFix"/>
<feColorMatrix in="SourceAlpha" type="matrix" values="0 0 0 0 0 0 0 0 0 0 0 0 0 0 0 0 0 0 127 0" result="hardAlpha"/>
<feMorphology radius="2" operator="erode" in="SourceAlpha" result="effect1_dropShadow_2312_208"/>
<feOffset dy="6"/>
<feGaussianBlur stdDeviation="7.5"/>
<feColorMatrix type="matrix" values="0 0 0 0 0.0627451 0 0 0 0 0.0941176 0 0 0 0 0.156863 0 0 0 0.08 0"/>
<feBlend mode="normal" in2="BackgroundImageFix" result="effect1_dropShadow_2312_208"/>
<feBlend mode="normal" in="SourceGraphic" in2="effect1_dropShadow_2312_208" result="shape"/>
</filter>
<filter id="filter5_d_2312_208" x="492" y="239" width="84" height="84" filterUnits="userSpaceOnUse" color-interpolation-filters="sRGB">
<feFlood flood-opacity="0" result="BackgroundImageFix"/>
<feColorMatrix in="SourceAlpha" type="matrix" values="0 0 0 0 0 0 0 0 0 0 0 0 0 0 0 0 0 0 127 0" result="hardAlpha"/>
<feMorphology radius="2" operator="erode" in="SourceAlpha" result="effect1_dropShadow_2312_208"/>
<feOffset dy="6"/>
<feGaussianBlur stdDeviation="7.5"/>
<feColorMatrix type="matrix" values="0 0 0 0 0.0627451 0 0 0 0 0.0941176 0 0 0 0 0.156863 0 0 0 0.08 0"/>
<feBlend mode="normal" in2="BackgroundImageFix" result="effect1_dropShadow_2312_208"/>
<feBlend mode="normal" in="SourceGraphic" in2="effect1_dropShadow_2312_208" result="shape"/>
</filter>
<filter id="filter6_d_2312_208" x="0" y="239" width="84" height="84" filterUnits="userSpaceOnUse" color-interpolation-filters="sRGB">
<feFlood flood-opacity="0" result="BackgroundImageFix"/>
<feColorMatrix in="SourceAlpha" type="matrix" values="0 0 0 0 0 0 0 0 0 0 0 0 0 0 0 0 0 0 127 0" result="hardAlpha"/>
<feMorphology radius="2" operator="erode" in="SourceAlpha" result="effect1_dropShadow_2312_208"/>
<feOffset dy="6"/>
<feGaussianBlur stdDeviation="7.5"/>
<feColorMatrix type="matrix" values="0 0 0 0 0.0627451 0 0 0 0 0.0941176 0 0 0 0 0.156863 0 0 0 0.08 0"/>
<feBlend mode="normal" in2="BackgroundImageFix" result="effect1_dropShadow_2312_208"/>
<feBlend mode="normal" in="SourceGraphic" in2="effect1_dropShadow_2312_208" result="shape"/>
</filter>
<filter id="filter7_d_2312_208" x="246" y="485" width="84" height="84" filterUnits="userSpaceOnUse" color-interpolation-filters="sRGB">
<feFlood flood-opacity="0" result="BackgroundImageFix"/>
<feColorMatrix in="SourceAlpha" type="matrix" values="0 0 0 0 0 0 0 0 0 0 0 0 0 0 0 0 0 0 127 0" result="hardAlpha"/>
<feMorphology radius="2" operator="erode" in="SourceAlpha" result="effect1_dropShadow_2312_208"/>
<feOffset dy="6"/>
<feGaussianBlur stdDeviation="7.5"/>
<feColorMatrix type="matrix" values="0 0 0 0 0.0627451 0 0 0 0 0.0941176 0 0 0 0 0.156863 0 0 0 0.08 0"/>
<feBlend mode="normal" in2="BackgroundImageFix" result="effect1_dropShadow_2312_208"/>
<feBlend mode="normal" in="SourceGraphic" in2="effect1_dropShadow_2312_208" result="shape"/>
</filter>
<filter id="filter8_d_2312_208" x="115.084" y="247.056" width="346.497" height="69.609" filterUnits="userSpaceOnUse" color-interpolation-filters="sRGB">
<feFlood flood-opacity="0" result="BackgroundImageFix"/>
<feColorMatrix in="SourceAlpha" type="matrix" values="0 0 0 0 0 0 0 0 0 0 0 0 0 0 0 0 0 0 127 0" result="hardAlpha"/>
<feOffset dy="2.97207"/>
<feGaussianBlur stdDeviation="4.4581"/>
<feColorMatrix type="matrix" values="0 0 0 0 0.0627451 0 0 0 0 0.0941176 0 0 0 0 0.156863 0 0 0 0.06 0"/>
<feBlend mode="normal" in2="BackgroundImageFix" result="effect1_dropShadow_2312_208"/>
<feBlend mode="normal" in="SourceGraphic" in2="effect1_dropShadow_2312_208" result="shape"/>
</filter>
</defs>
</svg>
