<svg width="42" height="42" viewBox="0 0 42 42" fill="none" xmlns="http://www.w3.org/2000/svg">
<rect width="42" height="42" rx="6" fill="white"/>
<path d="M28.5 12H26.25V11.25C26.25 11.0511 26.171 10.8603 26.0303 10.7197C25.8897 10.579 25.6989 10.5 25.5 10.5C25.3011 10.5 25.1103 10.579 24.9697 10.7197C24.829 10.8603 24.75 11.0511 24.75 11.25V12H17.25V11.25C17.25 11.0511 17.171 10.8603 17.0303 10.7197C16.8897 10.579 16.6989 10.5 16.5 10.5C16.3011 10.5 16.1103 10.579 15.9697 10.7197C15.829 10.8603 15.75 11.0511 15.75 11.25V12H13.5C13.1022 12 12.7206 12.158 12.4393 12.4393C12.158 12.7206 12 13.1022 12 13.5V28.5C12 28.8978 12.158 29.2794 12.4393 29.5607C12.7206 29.842 13.1022 30 13.5 30H28.5C28.8978 30 29.2794 29.842 29.5607 29.5607C29.842 29.2794 30 28.8978 30 28.5V13.5C30 13.1022 29.842 12.7206 29.5607 12.4393C29.2794 12.158 28.8978 12 28.5 12ZM16.875 26.25C16.6525 26.25 16.435 26.184 16.25 26.0604C16.065 25.9368 15.9208 25.7611 15.8356 25.5555C15.7505 25.35 15.7282 25.1238 15.7716 24.9055C15.815 24.6873 15.9222 24.4868 16.0795 24.3295C16.2368 24.1722 16.4373 24.065 16.6555 24.0216C16.8738 23.9782 17.1 24.0005 17.3055 24.0856C17.5111 24.1708 17.6868 24.315 17.8104 24.5C17.934 24.685 18 24.9025 18 25.125C18 25.4234 17.8815 25.7095 17.6705 25.9205C17.4595 26.1315 17.1734 26.25 16.875 26.25ZM21 26.25C20.7775 26.25 20.56 26.184 20.375 26.0604C20.19 25.9368 20.0458 25.7611 19.9606 25.5555C19.8755 25.35 19.8532 25.1238 19.8966 24.9055C19.94 24.6873 20.0472 24.4868 20.2045 24.3295C20.3618 24.1722 20.5623 24.065 20.7805 24.0216C20.9988 23.9782 21.225 24.0005 21.4305 24.0856C21.6361 24.1708 21.8118 24.315 21.9354 24.5C22.059 24.685 22.125 24.9025 22.125 25.125C22.125 25.4234 22.0065 25.7095 21.7955 25.9205C21.5845 26.1315 21.2984 26.25 21 26.25ZM21 22.5C20.7775 22.5 20.56 22.434 20.375 22.3104C20.19 22.1868 20.0458 22.0111 19.9606 21.8055C19.8755 21.6 19.8532 21.3738 19.8966 21.1555C19.94 20.9373 20.0472 20.7368 20.2045 20.5795C20.3618 20.4222 20.5623 20.315 20.7805 20.2716C20.9988 20.2282 21.225 20.2505 21.4305 20.3356C21.6361 20.4208 21.8118 20.565 21.9354 20.75C22.059 20.935 22.125 21.1525 22.125 21.375C22.125 21.6734 22.0065 21.9595 21.7955 22.1705C21.5845 22.3815 21.2984 22.5 21 22.5ZM25.125 26.25C24.9025 26.25 24.685 26.184 24.5 26.0604C24.315 25.9368 24.1708 25.7611 24.0856 25.5555C24.0005 25.35 23.9782 25.1238 24.0216 24.9055C24.065 24.6873 24.1722 24.4868 24.3295 24.3295C24.4868 24.1722 24.6873 24.065 24.9055 24.0216C25.1238 23.9782 25.35 24.0005 25.5555 24.0856C25.7611 24.1708 25.9368 24.315 26.0604 24.5C26.184 24.685 26.25 24.9025 26.25 25.125C26.25 25.4234 26.1315 25.7095 25.9205 25.9205C25.7095 26.1315 25.4234 26.25 25.125 26.25ZM25.125 22.5C24.9025 22.5 24.685 22.434 24.5 22.3104C24.315 22.1868 24.1708 22.0111 24.0856 21.8055C24.0005 21.6 23.9782 21.3738 24.0216 21.1555C24.065 20.9373 24.1722 20.7368 24.3295 20.5795C24.4868 20.4222 24.6873 20.315 24.9055 20.2716C25.1238 20.2282 25.35 20.2505 25.5555 20.3356C25.7611 20.4208 25.9368 20.565 26.0604 20.75C26.184 20.935 26.25 21.1525 26.25 21.375C26.25 21.6734 26.1315 21.9595 25.9205 22.1705C25.7095 22.3815 25.4234 22.5 25.125 22.5ZM28.5 16.5H13.5V13.5H15.75V14.25C15.75 14.4489 15.829 14.6397 15.9697 14.7803C16.1103 14.921 16.3011 15 16.5 15C16.6989 15 16.8897 14.921 17.0303 14.7803C17.171 14.6397 17.25 14.4489 17.25 14.25V13.5H24.75V14.25C24.75 14.4489 24.829 14.6397 24.9697 14.7803C25.1103 14.921 25.3011 15 25.5 15C25.6989 15 25.8897 14.921 26.0303 14.7803C26.171 14.6397 26.25 14.4489 26.25 14.25V13.5H28.5V16.5Z" fill="#24ACE4"/>
</svg>
