<svg width="57" height="57" viewBox="0 0 57 57" fill="none" xmlns="http://www.w3.org/2000/svg">
<rect width="57" height="57" rx="8.44444" fill="white"/>
<path d="M24.5 25.5C24.3022 25.5 24.1089 25.4414 23.9444 25.3315C23.78 25.2216 23.6518 25.0654 23.5761 24.8827C23.5004 24.7 23.4806 24.4989 23.5192 24.3049C23.5578 24.1109 23.653 23.9327 23.7929 23.7929C23.9327 23.653 24.1109 23.5578 24.3049 23.5192C24.4989 23.4806 24.7 23.5004 24.8827 23.5761C25.0654 23.6518 25.2216 23.78 25.3315 23.9444C25.4414 24.1089 25.5 24.3022 25.5 24.5C25.5 24.7652 25.3946 25.0196 25.2071 25.2071C25.0196 25.3946 24.7652 25.5 24.5 25.5ZM32.5 31.5C32.3022 31.5 32.1089 31.5586 31.9444 31.6685C31.78 31.7784 31.6518 31.9346 31.5761 32.1173C31.5004 32.3 31.4806 32.5011 31.5192 32.6951C31.5578 32.8891 31.653 33.0673 31.7929 33.2071C31.9327 33.347 32.1109 33.4422 32.3049 33.4808C32.4989 33.5194 32.7 33.4996 32.8827 33.4239C33.0654 33.3482 33.2216 33.22 33.3315 33.0556C33.4414 32.8911 33.5 32.6978 33.5 32.5C33.5 32.2348 33.3946 31.9804 33.2071 31.7929C33.0196 31.6054 32.7652 31.5 32.5 31.5ZM42.5 28.5C42.5 29.805 41.5613 30.7837 40.7325 31.6475C40.2612 32.14 39.7738 32.6475 39.59 33.0938C39.42 33.5025 39.41 34.18 39.4 34.8363C39.3813 36.0562 39.3612 37.4387 38.4 38.4C37.4387 39.3612 36.0562 39.3813 34.8363 39.4C34.18 39.41 33.5025 39.42 33.0938 39.59C32.6475 39.7738 32.14 40.2612 31.6475 40.7325C30.7837 41.5613 29.805 42.5 28.5 42.5C27.195 42.5 26.2162 41.5613 25.3525 40.7325C24.86 40.2612 24.3525 39.7738 23.9062 39.59C23.4975 39.42 22.82 39.41 22.1637 39.4C20.9437 39.3813 19.5612 39.3612 18.6 38.4C17.6387 37.4387 17.6187 36.0562 17.6 34.8363C17.59 34.18 17.58 33.5025 17.41 33.0938C17.2262 32.6475 16.7387 32.14 16.2675 31.6475C15.4387 30.7837 14.5 29.805 14.5 28.5C14.5 27.195 15.4387 26.2162 16.2675 25.3525C16.7387 24.86 17.2262 24.3525 17.41 23.9062C17.58 23.4975 17.59 22.82 17.6 22.1637C17.6187 20.9437 17.6387 19.5612 18.6 18.6C19.5612 17.6387 20.9437 17.6187 22.1637 17.6C22.82 17.59 23.4975 17.58 23.9062 17.41C24.3525 17.2262 24.86 16.7387 25.3525 16.2675C26.2162 15.4387 27.195 14.5 28.5 14.5C29.805 14.5 30.7837 15.4387 31.6475 16.2675C32.14 16.7387 32.6475 17.2262 33.0938 17.41C33.5025 17.58 34.18 17.59 34.8363 17.6C36.0562 17.6187 37.4387 17.6387 38.4 18.6C39.3612 19.5612 39.3813 20.9437 39.4 22.1637C39.41 22.82 39.42 23.4975 39.59 23.9062C39.7738 24.3525 40.2612 24.86 40.7325 25.3525C41.5613 26.2162 42.5 27.195 42.5 28.5ZM24.5 27.5C25.0933 27.5 25.6734 27.3241 26.1667 26.9944C26.6601 26.6648 27.0446 26.1962 27.2716 25.6481C27.4987 25.0999 27.5581 24.4967 27.4424 23.9147C27.3266 23.3328 27.0409 22.7982 26.6213 22.3787C26.2018 21.9591 25.6672 21.6734 25.0853 21.5576C24.5033 21.4419 23.9001 21.5013 23.3519 21.7284C22.8038 21.9554 22.3352 22.3399 22.0056 22.8333C21.6759 23.3266 21.5 23.9067 21.5 24.5C21.5 25.2956 21.8161 26.0587 22.3787 26.6213C22.9413 27.1839 23.7044 27.5 24.5 27.5ZM34.2075 24.2075C34.3004 24.1146 34.3741 24.0043 34.4244 23.8829C34.4747 23.7615 34.5006 23.6314 34.5006 23.5C34.5006 23.3686 34.4747 23.2385 34.4244 23.1171C34.3741 22.9957 34.3004 22.8854 34.2075 22.7925C34.1146 22.6996 34.0043 22.6259 33.8829 22.5756C33.7615 22.5253 33.6314 22.4994 33.5 22.4994C33.3686 22.4994 33.2385 22.5253 33.1171 22.5756C32.9957 22.6259 32.8854 22.6996 32.7925 22.7925L22.7925 32.7925C22.6996 32.8854 22.6259 32.9957 22.5756 33.1171C22.5253 33.2385 22.4994 33.3686 22.4994 33.5C22.4994 33.6314 22.5253 33.7615 22.5756 33.8829C22.6259 34.0043 22.6996 34.1146 22.7925 34.2075C22.9801 34.3951 23.2346 34.5006 23.5 34.5006C23.6314 34.5006 23.7615 34.4747 23.8829 34.4244C24.0043 34.3741 24.1146 34.3004 24.2075 34.2075L34.2075 24.2075ZM35.5 32.5C35.5 31.9067 35.3241 31.3266 34.9944 30.8333C34.6648 30.3399 34.1962 29.9554 33.6481 29.7284C33.0999 29.5013 32.4967 29.4419 31.9147 29.5576C31.3328 29.6734 30.7982 29.9591 30.3787 30.3787C29.9591 30.7982 29.6734 31.3328 29.5576 31.9147C29.4419 32.4967 29.5013 33.0999 29.7284 33.6481C29.9554 34.1962 30.3399 34.6648 30.8333 34.9944C31.3266 35.3241 31.9067 35.5 32.5 35.5C33.2956 35.5 34.0587 35.1839 34.6213 34.6213C35.1839 34.0587 35.5 33.2956 35.5 32.5Z" fill="#24ACE4"/>
</svg>
