<svg width="58" height="58" viewBox="0 0 58 58" fill="none" xmlns="http://www.w3.org/2000/svg">
<rect width="58" height="58" rx="8.44444" fill="white"/>
<path d="M44 39.0001C44 39.2654 43.8946 39.5197 43.7071 39.7072C43.5196 39.8948 43.2652 40.0001 43 40.0001H15C14.7348 40.0001 14.4804 39.8948 14.2929 39.7072C14.1054 39.5197 14 39.2654 14 39.0001C14 38.7349 14.1054 38.4806 14.2929 38.293C14.4804 38.1055 14.7348 38.0001 15 38.0001H43C43.2652 38.0001 43.5196 38.1055 43.7071 38.293C43.8946 38.4806 44 38.7349 44 39.0001ZM15.0375 25.2726C14.978 25.0629 14.9887 24.8395 15.0679 24.6364C15.1471 24.4334 15.2905 24.2617 15.4762 24.1476L28.4762 16.1476C28.6338 16.0508 28.8151 15.9995 29 15.9995C29.1849 15.9995 29.3662 16.0508 29.5238 16.1476L42.5238 24.1476C42.7096 24.2616 42.8531 24.4331 42.9324 24.6361C43.0118 24.8391 43.0226 25.0625 42.9633 25.2722C42.904 25.4819 42.7778 25.6666 42.6039 25.798C42.43 25.9294 42.218 26.0004 42 26.0001H39V34.0001H41C41.2652 34.0001 41.5196 34.1055 41.7071 34.293C41.8946 34.4806 42 34.7349 42 35.0001C42 35.2654 41.8946 35.5197 41.7071 35.7072C41.5196 35.8948 41.2652 36.0001 41 36.0001H17C16.7348 36.0001 16.4804 35.8948 16.2929 35.7072C16.1054 35.5197 16 35.2654 16 35.0001C16 34.7349 16.1054 34.4806 16.2929 34.293C16.4804 34.1055 16.7348 34.0001 17 34.0001H19V26.0001H16C15.7822 26.0002 15.5704 25.9292 15.3967 25.7979C15.223 25.6666 15.0968 25.4822 15.0375 25.2726ZM31 33.0001C31 33.2654 31.1054 33.5197 31.2929 33.7072C31.4804 33.8948 31.7348 34.0001 32 34.0001C32.2652 34.0001 32.5196 33.8948 32.7071 33.7072C32.8946 33.5197 33 33.2654 33 33.0001V27.0001C33 26.7349 32.8946 26.4806 32.7071 26.293C32.5196 26.1055 32.2652 26.0001 32 26.0001C31.7348 26.0001 31.4804 26.1055 31.2929 26.293C31.1054 26.4806 31 26.7349 31 27.0001V33.0001ZM25 33.0001C25 33.2654 25.1054 33.5197 25.2929 33.7072C25.4804 33.8948 25.7348 34.0001 26 34.0001C26.2652 34.0001 26.5196 33.8948 26.7071 33.7072C26.8946 33.5197 27 33.2654 27 33.0001V27.0001C27 26.7349 26.8946 26.4806 26.7071 26.293C26.5196 26.1055 26.2652 26.0001 26 26.0001C25.7348 26.0001 25.4804 26.1055 25.2929 26.293C25.1054 26.4806 25 26.7349 25 27.0001V33.0001Z" fill="#24ACE4"/>
</svg>
