<svg width="42" height="42" viewBox="0 0 42 42" fill="none" xmlns="http://www.w3.org/2000/svg">
<rect width="42" height="42" rx="6" fill="white"/>
<path d="M29.25 12.75H12.75C12.3522 12.75 11.9706 12.908 11.6893 13.1893C11.408 13.4706 11.25 13.8522 11.25 14.25V28.5C11.2501 28.6278 11.2828 28.7535 11.3451 28.8651C11.4074 28.9768 11.4972 29.0706 11.606 29.1378C11.7147 29.2049 11.8389 29.2432 11.9666 29.2489C12.0943 29.2546 12.2213 29.2275 12.3356 29.1703L15 27.8381L17.6644 29.1703C17.7686 29.2225 17.8835 29.2496 18 29.2496C18.1165 29.2496 18.2314 29.2225 18.3356 29.1703L21 27.8381L23.6644 29.1703C23.7686 29.2225 23.8835 29.2496 24 29.2496C24.1165 29.2496 24.2314 29.2225 24.3356 29.1703L27 27.8381L29.6644 29.1703C29.7787 29.2275 29.9057 29.2546 30.0334 29.2489C30.1611 29.2432 30.2853 29.2049 30.394 29.1378C30.5028 29.0706 30.5926 28.9768 30.6549 28.8651C30.7172 28.7535 30.7499 28.6278 30.75 28.5V14.25C30.75 13.8522 30.592 13.4706 30.3107 13.1893C30.0294 12.908 29.6478 12.75 29.25 12.75ZM25.5 22.5H16.5C16.3011 22.5 16.1103 22.421 15.9697 22.2803C15.829 22.1397 15.75 21.9489 15.75 21.75C15.75 21.5511 15.829 21.3603 15.9697 21.2197C16.1103 21.079 16.3011 21 16.5 21H25.5C25.6989 21 25.8897 21.079 26.0303 21.2197C26.171 21.3603 26.25 21.5511 26.25 21.75C26.25 21.9489 26.171 22.1397 26.0303 22.2803C25.8897 22.421 25.6989 22.5 25.5 22.5ZM25.5 19.5H16.5C16.3011 19.5 16.1103 19.421 15.9697 19.2803C15.829 19.1397 15.75 18.9489 15.75 18.75C15.75 18.5511 15.829 18.3603 15.9697 18.2197C16.1103 18.079 16.3011 18 16.5 18H25.5C25.6989 18 25.8897 18.079 26.0303 18.2197C26.171 18.3603 26.25 18.5511 26.25 18.75C26.25 18.9489 26.171 19.1397 26.0303 19.2803C25.8897 19.421 25.6989 19.5 25.5 19.5Z" fill="#24ACE4"/>
</svg>
