<svg width="1256" height="1256" viewBox="0 0 1256 1256" fill="none" xmlns="http://www.w3.org/2000/svg">
<path d="M628 0.5C974.559 0.5 1255.5 281.441 1255.5 628C1255.5 974.559 974.559 1255.5 628 1255.5C281.441 1255.5 0.5 974.559 0.5 628C0.5 281.441 281.441 0.5 628 0.5ZM1126.5 628C1126.5 903.314 903.314 1126.5 628 1126.5C352.686 1126.5 129.5 903.314 129.5 628C129.5 352.686 352.686 129.5 628 129.5C903.314 129.5 1126.5 352.686 1126.5 628ZM994.5 628C994.5 830.412 830.412 994.5 628 994.5C425.588 994.5 261.5 830.412 261.5 628C261.5 425.588 425.588 261.5 628 261.5C830.412 261.5 994.5 425.588 994.5 628ZM995.5 628C995.5 425.035 830.965 260.5 628 260.5C425.035 260.5 260.5 425.035 260.5 628C260.5 830.965 425.035 995.5 628 995.5C830.965 995.5 995.5 830.965 995.5 628ZM1127.5 628C1127.5 352.134 903.866 128.5 628 128.5C352.134 128.5 128.5 352.134 128.5 628C128.5 903.866 352.134 1127.5 628 1127.5C903.866 1127.5 1127.5 903.866 1127.5 628Z" fill="url(#paint0_linear_2334_1662)" fill-opacity="0.03"/>
<path d="M628 0.5C974.559 0.5 1255.5 281.441 1255.5 628C1255.5 974.559 974.559 1255.5 628 1255.5C281.441 1255.5 0.5 974.559 0.5 628C0.5 281.441 281.441 0.5 628 0.5ZM1126.5 628C1126.5 903.314 903.314 1126.5 628 1126.5C352.686 1126.5 129.5 903.314 129.5 628C129.5 352.686 352.686 129.5 628 129.5C903.314 129.5 1126.5 352.686 1126.5 628ZM994.5 628C994.5 830.412 830.412 994.5 628 994.5C425.588 994.5 261.5 830.412 261.5 628C261.5 425.588 425.588 261.5 628 261.5C830.412 261.5 994.5 425.588 994.5 628ZM995.5 628C995.5 425.035 830.965 260.5 628 260.5C425.035 260.5 260.5 425.035 260.5 628C260.5 830.965 425.035 995.5 628 995.5C830.965 995.5 995.5 830.965 995.5 628ZM1127.5 628C1127.5 352.134 903.866 128.5 628 128.5C352.134 128.5 128.5 352.134 128.5 628C128.5 903.866 352.134 1127.5 628 1127.5C903.866 1127.5 1127.5 903.866 1127.5 628Z" stroke="white" stroke-opacity="0.05"/>
<path d="M628 0.5C974.559 0.5 1255.5 281.441 1255.5 628C1255.5 974.559 974.559 1255.5 628 1255.5C281.441 1255.5 0.5 974.559 0.5 628C0.5 281.441 281.441 0.5 628 0.5ZM1126.5 628C1126.5 903.314 903.314 1126.5 628 1126.5C352.686 1126.5 129.5 903.314 129.5 628C129.5 352.686 352.686 129.5 628 129.5C903.314 129.5 1126.5 352.686 1126.5 628ZM994.5 628C994.5 830.412 830.412 994.5 628 994.5C425.588 994.5 261.5 830.412 261.5 628C261.5 425.588 425.588 261.5 628 261.5C830.412 261.5 994.5 425.588 994.5 628ZM995.5 628C995.5 425.035 830.965 260.5 628 260.5C425.035 260.5 260.5 425.035 260.5 628C260.5 830.965 425.035 995.5 628 995.5C830.965 995.5 995.5 830.965 995.5 628ZM1127.5 628C1127.5 352.134 903.866 128.5 628 128.5C352.134 128.5 128.5 352.134 128.5 628C128.5 903.866 352.134 1127.5 628 1127.5C903.866 1127.5 1127.5 903.866 1127.5 628Z" stroke="url(#paint1_linear_2334_1662)"/>
<defs>
<linearGradient id="paint0_linear_2334_1662" x1="628" y1="261" x2="628" y2="995" gradientUnits="userSpaceOnUse">
<stop stop-color="#24ACE4"/>
<stop offset="1" stop-color="#24ACE4" stop-opacity="0"/>
</linearGradient>
<linearGradient id="paint1_linear_2334_1662" x1="628" y1="261" x2="628" y2="995" gradientUnits="userSpaceOnUse">
<stop stop-color="#24ACE4" stop-opacity="0"/>
<stop offset="0.502862" stop-color="#24ACE4"/>
<stop offset="1" stop-color="#24ACE4" stop-opacity="0"/>
</linearGradient>
</defs>
</svg>
