<svg width="61" height="61" viewBox="0 0 61 61" fill="none" xmlns="http://www.w3.org/2000/svg">
<g filter="url(#filter0_d_2334_1889)">
<rect x="2.38477" y="1.19239" width="56.2305" height="56.2305" rx="8" fill="white" shape-rendering="crispEdges"/>
<g clip-path="url(#clip0_2334_1889)">
<path d="M30.5085 22.6599C30.5507 22.0754 30.7437 21.5119 31.0687 21.0244C31.3936 20.5368 31.8395 20.1418 32.3627 19.878C32.8859 19.6142 33.4686 19.4905 34.0538 19.5191C34.6391 19.5476 35.2069 19.7275 35.7019 20.041C35.7585 20.0781 35.8041 20.1296 35.8339 20.1904C35.8637 20.2511 35.8765 20.3187 35.8711 20.3861C35.8657 20.4536 35.8423 20.5183 35.8032 20.5735C35.7642 20.6287 35.711 20.6724 35.6492 20.7C34.7887 21.0871 34.0583 21.7145 33.5456 22.5067C33.033 23.2988 32.7599 24.2222 32.7593 25.1658C32.7593 25.2759 32.7593 25.3861 32.7706 25.4943C32.7757 25.5627 32.7621 25.6313 32.7312 25.6925C32.7003 25.7538 32.6532 25.8054 32.595 25.8419C32.5369 25.8783 32.4699 25.8982 32.4013 25.8993C32.3327 25.9004 32.2651 25.8828 32.2057 25.8483C31.651 25.5309 31.1972 25.0632 30.8969 24.499C30.5966 23.9349 30.4619 23.2973 30.5085 22.6599ZM41.0432 32.3775C41.0446 32.8078 40.9253 33.2299 40.6991 33.596C40.4728 33.962 40.1485 34.2574 39.763 34.4485L39.7215 34.4673L36.0663 36.0243C36.0301 36.0403 35.9926 36.0529 35.9542 36.062L29.9295 37.5682C29.8699 37.5835 29.8085 37.5914 29.7469 37.5917H19.9568C19.5573 37.5917 19.1742 37.433 18.8918 37.1506C18.6093 36.8681 18.4506 36.485 18.4506 36.0855V32.3201C18.4506 31.9206 18.6093 31.5375 18.8918 31.2551C19.1742 30.9726 19.5573 30.8139 19.9568 30.8139H22.6575L24.7869 28.6836C25.0661 28.4032 25.3981 28.1808 25.7638 28.0294C26.1294 27.878 26.5214 27.8006 26.9172 27.8016H31.6296C32.0274 27.8015 32.4201 27.8915 32.7781 28.0648C33.1362 28.2381 33.4504 28.4902 33.6972 28.8022C33.944 29.1142 34.1169 29.478 34.2031 29.8663C34.2893 30.2547 34.2865 30.6575 34.1948 31.0446L38.1335 30.139C38.4764 30.0482 38.8355 30.0373 39.1832 30.1072C39.531 30.1772 39.858 30.326 40.1391 30.5423C40.4203 30.7586 40.648 31.0365 40.8047 31.3547C40.9615 31.6729 41.0431 32.0228 41.0432 32.3775ZM39.537 32.3775C39.5369 32.253 39.5081 32.1302 39.4529 32.0186C39.3976 31.907 39.3174 31.8097 39.2184 31.7341C39.1194 31.6585 39.0044 31.6068 38.8822 31.5829C38.76 31.5589 38.6339 31.5635 38.5138 31.5962L38.4846 31.6037L32.1775 33.0544C32.1222 33.0667 32.0657 33.073 32.009 33.0732H28.9938C28.7941 33.0732 28.6025 32.9938 28.4613 32.8526C28.3201 32.7114 28.2407 32.5198 28.2407 32.3201C28.2407 32.1204 28.3201 31.9288 28.4613 31.7876C28.6025 31.6464 28.7941 31.567 28.9938 31.567H31.6296C31.9292 31.567 32.2166 31.448 32.4284 31.2362C32.6402 31.0243 32.7593 30.737 32.7593 30.4374C32.7593 30.1378 32.6402 29.8505 32.4284 29.6386C32.2166 29.4268 31.9292 29.3078 31.6296 29.3078H26.9172C26.7193 29.3071 26.5233 29.3458 26.3405 29.4216C26.1578 29.4974 25.9919 29.6088 25.8525 29.7493L23.7222 31.8786V36.0855H29.6528L35.5297 34.6161L39.1068 33.093C39.237 33.0244 39.346 32.9214 39.4218 32.7953C39.4976 32.6692 39.5375 32.5247 39.537 32.3775ZM34.2654 25.1658C34.2654 25.836 34.4642 26.4912 34.8366 27.0485C35.2089 27.6058 35.7382 28.0402 36.3575 28.2967C36.9767 28.5532 37.6581 28.6203 38.3155 28.4895C38.9728 28.3588 39.5767 28.036 40.0506 27.5621C40.5246 27.0881 40.8473 26.4843 40.9781 25.8269C41.1089 25.1695 41.0417 24.4881 40.7852 23.8689C40.5287 23.2497 40.0944 22.7204 39.5371 22.348C38.9798 21.9756 38.3246 21.7769 37.6543 21.7769C36.7555 21.7769 35.8936 22.1339 35.258 22.7695C34.6225 23.405 34.2654 24.267 34.2654 25.1658Z" fill="#24ACE4"/>
</g>
</g>
<defs>
<filter id="filter0_d_2334_1889" x="-2.39399e-07" y="-1.197e-07" width="61" height="61" filterUnits="userSpaceOnUse" color-interpolation-filters="sRGB">
<feFlood flood-opacity="0" result="BackgroundImageFix"/>
<feColorMatrix in="SourceAlpha" type="matrix" values="0 0 0 0 0 0 0 0 0 0 0 0 0 0 0 0 0 0 127 0" result="hardAlpha"/>
<feOffset dy="1.1875"/>
<feGaussianBlur stdDeviation="1.1875"/>
<feComposite in2="hardAlpha" operator="out"/>
<feColorMatrix type="matrix" values="0 0 0 0 0 0 0 0 0 0 0 0 0 0 0 0 0 0 0.05 0"/>
<feBlend mode="normal" in2="BackgroundImageFix" result="effect1_dropShadow_2334_1889"/>
<feBlend mode="normal" in="SourceGraphic" in2="effect1_dropShadow_2334_1889" result="shape"/>
</filter>
<clipPath id="clip0_2334_1889">
<rect width="24" height="24" fill="white" transform="translate(18.4506 17.2582) scale(1.00412)"/>
</clipPath>
</defs>
</svg>
