<svg width="1529" height="1081" viewBox="0 0 1529 1081" fill="none" xmlns="http://www.w3.org/2000/svg">
<g opacity="0.2">
<path d="M90.3456 0.5H0.5V90.5M90.3456 0.5V90.5M90.3456 0.5H180.191M90.3456 90.5H0.5M90.3456 90.5H180.191M90.3456 90.5V180.5M0.5 90.5V180.5M180.191 0.5V90.5M180.191 0.5H270.037M180.191 90.5H270.037M180.191 90.5V180.5M270.037 0.5V90.5M270.037 0.5H359.882M270.037 90.5H359.882M270.037 90.5V180.5M359.882 0.5V90.5M359.882 0.5H449.728M359.882 90.5H449.728M359.882 90.5V180.5M449.728 0.5V90.5M449.728 0.5H539.574M449.728 90.5H539.574M449.728 90.5V180.5M539.574 0.5V90.5M539.574 0.5H629.419M539.574 90.5H629.419M539.574 90.5V180.5M629.419 0.5V90.5M629.419 0.5H719.265M629.419 90.5H719.265M629.419 90.5V180.5M719.265 0.5V90.5M719.265 0.5H809.11M719.265 90.5H809.11M719.265 90.5V180.5M809.11 0.5V90.5M809.11 0.5H898.956M809.11 90.5H898.956M809.11 90.5V180.5M898.956 0.5V90.5M898.956 0.5H988.801M898.956 90.5H988.801M898.956 90.5V180.5M988.801 0.5V90.5M988.801 0.5H1078.65M988.801 90.5H1078.65M988.801 90.5V180.5M1078.65 0.5V90.5M1078.65 0.5H1168.49M1078.65 90.5H1168.49M1078.65 90.5V180.5M1168.49 0.5V90.5M1168.49 0.5H1258.34M1168.49 90.5H1258.34M1168.49 90.5V180.5M1258.34 0.5V90.5M1258.34 0.5H1348.18M1258.34 90.5H1348.18M1258.34 90.5V180.5M1348.18 0.5V90.5M1348.18 0.5H1438.03M1348.18 90.5H1438.03M1348.18 90.5V180.5M1438.03 0.5V90.5M1438.03 0.5H1527.88V90.5M1438.03 90.5H1527.88M1438.03 90.5V180.5M1527.88 90.5V180.5M90.3456 180.5H0.5M90.3456 180.5H180.191M90.3456 180.5V270.5M0.5 180.5V270.5M180.191 180.5H270.037M180.191 180.5V270.5M270.037 180.5H359.882M270.037 180.5V270.5M359.882 180.5H449.728M359.882 180.5V270.5M449.728 180.5H539.574M449.728 180.5V270.5M539.574 180.5H629.419M539.574 180.5V270.5M629.419 180.5H719.265M629.419 180.5V270.5M719.265 180.5H809.11M719.265 180.5V270.5M809.11 180.5H898.956M809.11 180.5V270.5M898.956 180.5H988.801M898.956 180.5V270.5M988.801 180.5H1078.65M988.801 180.5V270.5M1078.65 180.5H1168.49M1078.65 180.5V270.5M1168.49 180.5H1258.34M1168.49 180.5V270.5M1258.34 180.5H1348.18M1258.34 180.5V270.5M1348.18 180.5H1438.03M1348.18 180.5V270.5M1438.03 180.5H1527.88M1438.03 180.5V270.5M1527.88 180.5V270.5M90.3456 270.5H0.5M90.3456 270.5H180.191M90.3456 270.5V360.5M0.5 270.5V360.5M180.191 270.5H270.037M180.191 270.5V360.5M270.037 270.5H359.882M270.037 270.5V360.5M359.882 270.5H449.728M359.882 270.5V360.5M449.728 270.5H539.574M449.728 270.5V360.5M539.574 270.5H629.419M539.574 270.5V360.5M629.419 270.5H719.265M629.419 270.5V360.5M719.265 270.5H809.11M719.265 270.5V360.5M809.11 270.5H898.956M809.11 270.5V360.5M898.956 270.5H988.801M898.956 270.5V360.5M988.801 270.5H1078.65M988.801 270.5V360.5M1078.65 270.5H1168.49M1078.65 270.5V360.5M1168.49 270.5H1258.34M1168.49 270.5V360.5M1258.34 270.5H1348.18M1258.34 270.5V360.5M1348.18 270.5H1438.03M1348.18 270.5V360.5M1438.03 270.5H1527.88M1438.03 270.5V360.5M1527.88 270.5V360.5M90.3456 360.5H0.5M90.3456 360.5H180.191M90.3456 360.5V450.5M0.5 360.5V450.5M180.191 360.5H270.037M180.191 360.5V450.5M270.037 360.5H359.882M270.037 360.5V450.5M359.882 360.5H449.728M359.882 360.5V450.5M449.728 360.5H539.574M449.728 360.5V450.5M539.574 360.5H629.419M539.574 360.5V450.5M629.419 360.5H719.265M629.419 360.5V450.5M719.265 360.5H809.11M719.265 360.5V450.5M809.11 360.5H898.956M809.11 360.5V450.5M898.956 360.5H988.801M898.956 360.5V450.5M988.801 360.5H1078.65M988.801 360.5V450.5M1078.65 360.5H1168.49M1078.65 360.5V450.5M1168.49 360.5H1258.34M1168.49 360.5V450.5M1258.34 360.5H1348.18M1258.34 360.5V450.5M1348.18 360.5H1438.03M1348.18 360.5V450.5M1438.03 360.5H1527.88M1438.03 360.5V450.5M1527.88 360.5V450.5M90.3456 450.5H0.5M90.3456 450.5H180.191M90.3456 450.5V540.5M0.5 450.5V540.5M180.191 450.5H270.037M180.191 450.5V540.5M270.037 450.5H359.882M270.037 450.5V540.5M359.882 450.5H449.728M359.882 450.5V540.5M449.728 450.5H539.574M449.728 450.5V540.5M539.574 450.5H629.419M539.574 450.5V540.5M629.419 450.5H719.265M629.419 450.5V540.5M719.265 450.5H809.11M719.265 450.5V540.5M809.11 450.5H898.956M809.11 450.5V540.5M898.956 450.5H988.801M898.956 450.5V540.5M988.801 450.5H1078.65M988.801 450.5V540.5M1078.65 450.5H1168.49M1078.65 450.5V540.5M1168.49 450.5H1258.34M1168.49 450.5V540.5M1258.34 450.5H1348.18M1258.34 450.5V540.5M1348.18 450.5H1438.03M1348.18 450.5V540.5M1438.03 450.5H1527.88M1438.03 450.5V540.5M1527.88 450.5V540.5M90.3456 540.5H0.5M90.3456 540.5H180.191M90.3456 540.5V630.5M0.5 540.5V630.5M180.191 540.5H270.037M180.191 540.5V630.5M270.037 540.5H359.882M270.037 540.5V630.5M359.882 540.5H449.728M359.882 540.5V630.5M449.728 540.5H539.574M449.728 540.5V630.5M539.574 540.5H629.419M539.574 540.5V630.5M629.419 540.5H719.265M629.419 540.5V630.5M719.265 540.5H809.11M719.265 540.5V630.5M809.11 540.5H898.956M809.11 540.5V630.5M898.956 540.5H988.801M898.956 540.5V630.5M988.801 540.5H1078.65M988.801 540.5V630.5M1078.65 540.5H1168.49M1078.65 540.5V630.5M1168.49 540.5H1258.34M1168.49 540.5V630.5M1258.34 540.5H1348.18M1258.34 540.5V630.5M1348.18 540.5H1438.03M1348.18 540.5V630.5M1438.03 540.5H1527.88M1438.03 540.5V630.5M1527.88 540.5V630.5M90.3456 630.5H0.5M90.3456 630.5H180.191M90.3456 630.5V720.5M0.5 630.5V720.5M180.191 630.5H270.037M180.191 630.5V720.5M270.037 630.5H359.882M270.037 630.5V720.5M359.882 630.5H449.728M359.882 630.5V720.5M449.728 630.5H539.574M449.728 630.5V720.5M539.574 630.5H629.419M539.574 630.5V720.5M629.419 630.5H719.265M629.419 630.5V720.5M719.265 630.5H809.11M719.265 630.5V720.5M809.11 630.5H898.956M809.11 630.5V720.5M898.956 630.5H988.801M898.956 630.5V720.5M988.801 630.5H1078.65M988.801 630.5V720.5M1078.65 630.5H1168.49M1078.65 630.5V720.5M1168.49 630.5H1258.34M1168.49 630.5V720.5M1258.34 630.5H1348.18M1258.34 630.5V720.5M1348.18 630.5H1438.03M1348.18 630.5V720.5M1438.03 630.5H1527.88M1438.03 630.5V720.5M1527.88 630.5V720.5M90.3456 720.5H0.5M90.3456 720.5H180.191M90.3456 720.5V810.5M0.5 720.5V810.5M180.191 720.5H270.037M180.191 720.5V810.5M270.037 720.5H359.882M270.037 720.5V810.5M359.882 720.5H449.728M359.882 720.5V810.5M449.728 720.5H539.574M449.728 720.5V810.5M539.574 720.5H629.419M539.574 720.5V810.5M629.419 720.5H719.265M629.419 720.5V810.5M719.265 720.5H809.11M719.265 720.5V810.5M809.11 720.5H898.956M809.11 720.5V810.5M898.956 720.5H988.801M898.956 720.5V810.5M988.801 720.5H1078.65M988.801 720.5V810.5M1078.65 720.5H1168.49M1078.65 720.5V810.5M1168.49 720.5H1258.34M1168.49 720.5V810.5M1258.34 720.5H1348.18M1258.34 720.5V810.5M1348.18 720.5H1438.03M1348.18 720.5V810.5M1438.03 720.5H1527.88M1438.03 720.5V810.5M1527.88 720.5V810.5M90.3456 810.5H0.5M90.3456 810.5H180.191M90.3456 810.5V900.5M0.5 810.5V900.5M180.191 810.5H270.037M180.191 810.5V900.5M270.037 810.5H359.882M270.037 810.5V900.5M359.882 810.5H449.728M359.882 810.5V900.5M449.728 810.5H539.574M449.728 810.5V900.5M539.574 810.5H629.419M539.574 810.5V900.5M629.419 810.5H719.265M629.419 810.5V900.5M719.265 810.5H809.11M719.265 810.5V900.5M809.11 810.5H898.956M809.11 810.5V900.5M898.956 810.5H988.801M898.956 810.5V900.5M988.801 810.5H1078.65M988.801 810.5V900.5M1078.65 810.5H1168.49M1078.65 810.5V900.5M1168.49 810.5H1258.34M1168.49 810.5V900.5M1258.34 810.5H1348.18M1258.34 810.5V900.5M1348.18 810.5H1438.03M1348.18 810.5V900.5M1438.03 810.5H1527.88M1438.03 810.5V900.5M1527.88 810.5V900.5M90.3456 900.5H0.5M90.3456 900.5H180.191M90.3456 900.5V990.5M0.5 900.5V990.5M180.191 900.5H270.037M180.191 900.5V990.5M270.037 900.5H359.882M270.037 900.5V990.5M359.882 900.5H449.728M359.882 900.5V990.5M449.728 900.5H539.574M449.728 900.5V990.5M539.574 900.5H629.419M539.574 900.5V990.5M629.419 900.5H719.265M629.419 900.5V990.5M719.265 900.5H809.11M719.265 900.5V990.5M809.11 900.5H898.956M809.11 900.5V990.5M898.956 900.5H988.801M898.956 900.5V990.5M988.801 900.5H1078.65M988.801 900.5V990.5M1078.65 900.5H1168.49M1078.65 900.5V990.5M1168.49 900.5H1258.34M1168.49 900.5V990.5M1258.34 900.5H1348.18M1258.34 900.5V990.5M1348.18 900.5H1438.03M1348.18 900.5V990.5M1438.03 900.5H1527.88M1438.03 900.5V990.5M1527.88 900.5V990.5M90.3456 990.5H0.5M90.3456 990.5H180.191M90.3456 990.5V1080.5M0.5 990.5V1080.5H90.3456M180.191 990.5H270.037M180.191 990.5V1080.5M270.037 990.5H359.882M270.037 990.5V1080.5M359.882 990.5H449.728M359.882 990.5V1080.5M449.728 990.5H539.574M449.728 990.5V1080.5M539.574 990.5H629.419M539.574 990.5V1080.5M629.419 990.5H719.265M629.419 990.5V1080.5M719.265 990.5H809.11M719.265 990.5V1080.5M809.11 990.5H898.956M809.11 990.5V1080.5M898.956 990.5H988.801M898.956 990.5V1080.5M988.801 990.5H1078.65M988.801 990.5V1080.5M1078.65 990.5H1168.49M1078.65 990.5V1080.5M1168.49 990.5H1258.34M1168.49 990.5V1080.5M1258.34 990.5H1348.18M1258.34 990.5V1080.5M1348.18 990.5H1438.03M1348.18 990.5V1080.5M1438.03 990.5H1527.88M1438.03 990.5V1080.5M1527.88 990.5V1080.5H1438.03M90.3456 1080.5H180.191M180.191 1080.5H270.037M270.037 1080.5H359.882M359.882 1080.5H449.728M449.728 1080.5H539.574M539.574 1080.5H629.419M629.419 1080.5H719.265M719.265 1080.5H809.11M809.11 1080.5H898.956M898.956 1080.5H988.801M988.801 1080.5H1078.65M1078.65 1080.5H1168.49M1168.49 1080.5H1258.34M1258.34 1080.5H1348.18M1348.18 1080.5H1438.03" stroke="url(#paint0_radial_2351_129)"/>
</g>
<defs>
<radialGradient id="paint0_radial_2351_129" cx="0" cy="0" r="1" gradientUnits="userSpaceOnUse" gradientTransform="translate(764.188 569.346) rotate(90) scale(510 764.84)">
<stop stop-color="#D9D9D9"/>
<stop offset="1" stop-color="#D9D9D9" stop-opacity="0"/>
</radialGradient>
</defs>
</svg>
